<?xml version="1.0" standalone="yes"?>
<svg xmlns="http://www.w3.org/2000/svg" width="256" height="256">
<path style="fill:#000000; stroke:none;" d="M0 0L0 112C7.98437 97.3321 13.3613 80.5454 19.4637 65C28.0469 43.1352 37.9814 21.6964 47 0L0 0z"/>
<path style="fill:#71bda7; stroke:none;" d="M47 0C50.9586 1.6611 55.7396 1 60 1L83 1L170 1C183.043 1 199.123 -1.70184 211 4C208.154 -0.640045 204.004 0.000320435 199 0L170 0L47 0z"/>
<path style="fill:#000000; stroke:none;" d="M209 0C219.27 24.6671 229.836 49.2398 239.864 74C242.959 81.6406 245.952 89.4917 249.312 97C251.407 101.68 254.092 105.904 255 111C256.552 107.301 256 102.983 256 99L256 77L256 0L209 0z"/>
<path style="fill:#a7d4c8; stroke:none;" d="M46 1L45 4C46.7663 3.02139 46.9554 2.7782 46 1z"/>
<path style="fill:#4fae94; stroke:none;" d="M47 1C46.2507 3.25374 45.656 4.31355 44 6C44.1651 12.5472 39.0909 19.8882 36.6944 26C35.6015 28.7873 34.5557 32.4288 32 34C32.0054 38.8992 30.425 43.47 27 47C27.1701 53.7483 22.0758 61.8173 19.3889 68C18.3081 70.4871 17.2796 73.5986 15 75C15.0047 79.2939 13.8822 82.7965 11 86C10.603 92.48 6.13294 99.9478 3.69136 106C2.61453 108.669 0.478215 112.005 0.982253 115C1.45954 117.836 4.02854 119.958 5.83488 122C10.8622 127.685 18.9202 133.59 21 141C27.1145 142.715 33.0243 151.177 35 157C37.9618 157.908 39.7466 160.331 42.0424 162.426C48.5296 168.346 53.4026 175.266 58.9583 181.978C61.5989 185.168 65.1147 187.109 67.9198 190.093C80.8022 203.797 93.2027 218.058 105.871 231.985C110.345 236.903 114.7 241.955 119.08 246.961C121.188 249.369 123.815 252.857 127 253.863C130.879 255.09 133.764 250.388 136.035 247.999C143.794 239.841 151.278 231.35 158.83 223C182.959 196.322 207.496 169.974 231.285 143C239.112 134.126 254.609 123.353 256 111L254 112L255 107C253.805 107.598 254.023 107.466 253 109C251.422 103.128 248.057 97.8816 246.398 92C245.615 89.2247 246.03 86.4307 243 86L244 83C242.118 80.8793 241.862 79.8417 242 77C239.821 76.2736 240.22 76.5605 241 75L239 75L240 73C238.064 70.6679 237.941 69.03 238 66C236.805 66.5977 237.023 66.4661 236 68C233.97 60.951 229.356 54.4469 229 47C226.821 46.2736 227.22 46.5605 228 45C225.32 42.2166 224.663 39.8331 225 36C222.821 35.2736 223.22 35.5605 224 34L222 34L223 32C219.268 28.2752 218.676 23.7139 216.721 19C214.868 14.5286 212.247 10.9451 212 6C209.821 5.27361 210.22 5.56056 211 4C205.632 0.374146 200.268 1 194 1L165 1L47 1z"/>
<path style="fill:#7fc3b0; stroke:none;" d="M45 4L44 6L46 6C46 4.14674 46.2997 4.64986 45 4z"/>
<path style="fill:#50af95; stroke:none;" d="M52 4C51.4316 6.90642 51.3739 9.1069 52 12L50 12L50 18C46.4441 18.9905 45.7109 21.4931 46 25L42 25C42.3902 26.9512 42.6306 29.2823 41 32L40 31C40.6614 32.3964 40.9644 32.8137 42 34C40.9205 35.4413 41.0313 35.1682 41 37L39 37L39 43L38 44C36.3161 43.7761 35.6865 43.7817 34 44L35 51L33 50C33.6614 51.3964 33.9644 51.8137 35 53C33.9205 54.4413 34.0313 54.1682 34 56L32 56L33 58L29 58L30 63L29 64C26.6699 63.9525 26.994 63.7965 26 66L29 65C27.0244 68.5 24.8118 71.9421 25 76L22 75C22.6614 76.3964 22.9644 76.8137 24 78C22.9205 79.4413 23.0313 79.1682 23 81L21 81L22 83C18.352 83 19.2751 84.5688 17 84L17 87L19 86C19 89.2607 19.1434 89.5359 17 89C17.6614 90.3964 17.9644 90.8137 19 92C17.9205 93.4413 18.0313 93.1682 18 95L16 95L17 97C14.0327 97.8659 13.7129 98.9919 14 102C12.3135 101.782 11.6839 101.776 10 102L13 104L8 105C9.89941 108.039 8.64436 111.52 8 115L10 115L9 117L14 119L13 121C16.6506 122.993 17.9309 125.014 19 129C20.1954 128.402 19.9774 128.534 21 127C22.9934 131.239 27.6252 133.67 29 138C33.162 140.437 34.3525 142.168 34 147C37.252 147.927 39.9289 149.665 43 151L42 153C46.9834 156.194 50.9084 161.523 56 164C56.2473 166.563 57.0881 168.566 58 171C59.1954 170.402 58.9774 170.534 60 169C61.0046 171.371 62.36 173.523 63 176L67 177C67.8478 181.532 72.6373 182.724 74 187L76 187C76.8334 191.78 80.6833 194.172 85 196C83.9131 198.717 83.9136 196.914 86 199L85 200C87.7754 201.611 90.0113 202.889 91 206C93.9707 208.299 95.6407 210.495 97 214C98.1954 213.402 97.9774 213.534 99 212C99.9357 213.949 100.392 214.55 102 216C100.964 217.186 100.661 217.604 100 219C102.889 219.568 105.279 220.871 108 222C108.659 225.809 111.832 227.492 113 231C117.108 234.05 120.257 237.88 125 240C125.655 243.587 127.487 244.408 131 245L133 242L131 241C135.394 237.734 141.959 233.591 143 228C148.548 227.47 158.261 222.785 154 216C155.608 214.55 156.064 213.949 157 212L158 214C160.749 210.373 165.2 206.384 166 202L171 200L171 196C175.317 194.172 179.167 191.78 180 187C182.271 185.775 182.591 185.509 183 183L189 182C189.873 179.738 189.875 179.249 189 177C194.885 175.347 199.349 170.075 200 164C203.472 162.36 205.344 160.814 206 157C209.05 156.176 211.328 154.688 214 153L213 151C216.062 149.699 218.792 147.964 222 147L223 139C226.202 138.079 227.409 137.285 228 134C231.502 132.351 233.351 130.502 235 127C236.023 128.534 235.805 128.402 237 129C238.069 125.014 239.349 122.993 243 121L242 119L247 117C246.792 115.339 246.505 115.46 248 115C247.371 111.115 246.631 107.781 248 104C245.821 103.274 246.22 103.561 247 102C245.15 101.798 243.85 101.798 242 102C242.287 98.992 241.967 97.8659 239 97C239.338 95.3279 239.537 95.6898 238 95C237.969 93.1682 238.079 93.4413 237 92C238.036 90.8137 238.339 90.3964 239 89C236.183 89.5634 236.337 88.7714 238 86L239 87L239 84L237 85C236.02 83.2167 236.092 83.4057 234 83C234.338 81.3279 234.537 81.6898 233 81C232.969 79.1682 233.079 79.4413 232 78C233.392 76.5937 234.073 75.7287 235 74L233 74C234.861 70.2775 233.394 69.3936 231 67L232 66L230 66L231 64C229.313 63.7817 228.684 63.7761 227 64L226 63L227 58L223 58C223.338 56.3279 223.537 56.6898 222 56C221.969 54.1682 222.079 54.4413 221 53C222.036 51.8137 222.339 51.3964 223 50L221 51L222 44C220.313 43.7817 219.684 43.7761 218 44L217 43L218 38C216.521 37.0143 216.797 37 215 37C214.969 35.1682 215.079 35.4413 214 34C215.036 32.8137 215.339 32.3963 216 31C213.021 31 213.63 27.5007 214 25L210 25C210.278 21.429 209.648 18.9772 206 18L207 13C205.521 12.0143 205.797 12 204 12C204.626 9.1069 204.568 6.90642 204 4C202.805 4.59775 203.023 4.466 202 6C199.565 3.21368 195.516 4.00023 192 4L168 4L85 4L65 4C60.6807 4 56.6341 3.45459 53 6C53 4.14674 53.2997 4.64986 52 4z"/>
<path style="fill:#74bca8; stroke:none;" d="M210.667 5.33333C210.222 5.77785 211.278 5.72217 211.333 5.66667C211.778 5.22221 210.722 5.27773 210.667 5.33333z"/>
<path style="fill:#6db9a4; stroke:none;" d="M43 7L43 11C44.0811 9.54198 44.4361 8.75194 45 7L43 7z"/>
<path style="fill:#73bda8; stroke:none;" d="M211 7C211.776 9.13171 212.13 9.7708 214 11C213.223 8.86823 212.87 8.22923 211 7z"/>
<path style="fill:#93cdbd; stroke:none;" d="M42.3333 11.6667C42.2777 11.7223 42.2222 12.7777 42.6667 12.3333C42.7222 12.2778 42.7778 11.2222 42.3333 11.6667z"/>
<path style="fill:#94cdbe; stroke:none;" d="M213.333 11.6667C213.278 11.7222 213.222 12.7778 213.667 12.3333C213.722 12.2778 213.778 11.2223 213.333 11.6667z"/>
<path style="fill:#98cfc0; stroke:none;" d="M41.3333 13.6667C41.2777 13.7223 41.2222 14.7777 41.6667 14.3333C41.7222 14.2778 41.7778 13.2222 41.3333 13.6667z"/>
<path style="fill:#90cbbb; stroke:none;" d="M214.333 13.6667C214.278 13.7222 214.222 14.7778 214.667 14.3333C214.722 14.2777 214.778 13.2223 214.333 13.6667z"/>
<path style="fill:#a6d4c7; stroke:none;" d="M40.3333 15.6667C40.2777 15.7223 40.2222 16.7777 40.6667 16.3333C40.7222 16.2778 40.7778 15.2222 40.3333 15.6667z"/>
<path style="fill:#92ccbc; stroke:none;" d="M215.333 15.6667C215.278 15.7222 215.222 16.7778 215.667 16.3333C215.722 16.2778 215.778 15.2222 215.333 15.6667z"/>
<path style="fill:#cde3da; stroke:none;" d="M39.3333 17.6667C39.2777 17.7223 39.2223 18.7777 39.6667 18.3333C39.7222 18.2778 39.7778 17.2222 39.3333 17.6667z"/>
<path style="fill:#abd4c6; stroke:none;" d="M216.333 17.6667C216.278 17.7222 216.222 18.7778 216.667 18.3333C216.722 18.2777 216.778 17.2223 216.333 17.6667z"/>
<path style="fill:#a5d1c4; stroke:none;" d="M38 20C38.0313 21.8318 37.9205 21.5587 39 23C38.7488 21.5485 38.6848 21.2483 38 20z"/>
<path style="fill:#a1d1c3; stroke:none;" d="M217 21L219 27C219.976 24.2035 219.4 22.6895 217 21z"/>
<path style="fill:#beded6; stroke:none;" d="M37 22C36.4382 23.8005 36.1759 25.1219 36 27C37.1326 25.1013 37.4734 24.1429 37 22z"/>
<path style="fill:#71bca8; stroke:none;" d="M220 25C219.82 27.6467 220.181 29.4685 221 32C221.806 29.3612 221.289 27.4296 220 25z"/>
<path style="fill:#e9f4f1; stroke:none;" d="M35 26L36 27L35 26z"/>
<path style="fill:#7cc0ae; stroke:none;" d="M35 27L35 30C35.6961 28.4463 35.6961 28.5537 35 27z"/>
<path style="fill:#4fae94; stroke:none;" d="M61 30C61.6938 40.2256 60.9967 50.7383 61 61C61.0012 64.6512 60.0072 70.8016 62.6535 73.7716C65.5083 76.9755 71.1689 76 75 76L107 76L107 87L86 88C86.6498 89.2997 86.1468 89 88 89C78.665 92.4516 67.6058 91.321 58.2222 94.3056C55.4778 95.1785 49.9858 97.5068 50 100L45 100C44.4164 102.211 43.8964 102.646 42 104C42.4584 108.869 42.5056 114.136 42 119C45.0469 121.119 47.7477 123.863 51 125.674C54.8261 127.806 58.457 128.184 62 131L62 129C65.8859 131.725 72.2688 132.529 77 133L73 134C83.1065 139.258 97.9849 137 109 137L109 135C104.357 134.999 99.4252 133.543 95 134C96.2228 132.805 96.42 132.684 98 132C86.8154 127.263 73.3981 128.135 62 123.09C57.688 121.182 52.5412 119.231 50.0532 114.91C46.0954 108.036 55.9599 102.684 61 100.378C75.641 93.6799 94.1755 91.2908 110 90L110 71L67 71L67 34L189 34L189 71L146 71L146 90C161.704 90.8043 179.282 94.6489 194 100.181C198.708 101.95 208.217 106.616 206.762 112.985C205.671 117.764 200.019 120.42 196 122.21C184.971 127.122 173.311 127.414 162 131C163.248 131.685 163.548 131.749 165 132C158.963 134.311 153.425 134.999 147 135L147 137C161.017 137 174.164 136.258 188 134C186.752 133.315 186.452 133.251 185 133C188.109 131.674 191.263 130.994 194 129L194 131C199.205 126.862 210.792 126.364 212 119L214 119C213.542 114.131 213.494 108.864 214 104L212 104C211.071 99.2365 206.548 98.5063 202.464 96.8449C192.255 92.6919 180.17 90.0308 169 90C171.729 89.1898 174.15 89.0208 177 89C173.526 87.5421 169.733 88.1014 166.001 87.9637C160.302 87.7535 154.729 87.0006 149 87L149 76C163.882 76 179.17 74.9795 194 76L195 75C193.652 60.6872 193.956 44.3421 195 30C185.39 27.4005 173.907 29 164 29L105 29L78 29C72.384 29 66.4349 28.4228 61 30z"/>
<path style="fill:#a2d1c4; stroke:none;" d="M34.3333 30.6667C34.2777 30.7223 34.2222 31.7778 34.6667 31.3333C34.7222 31.2778 34.7778 30.2222 34.3333 30.6667z"/>
<path style="fill:#c8e3db; stroke:none;" d="M33 33L34 34L33 33z"/>
<path style="fill:#c0dfd7; stroke:none;" d="M222 33L223 34L222 33z"/>
<path style="fill:#7bbfad; stroke:none;" d="M67 34C70.9586 35.6611 75.7397 35 80 35L104 35L189 35C185.041 33.3389 180.26 34 176 34L152 34L67 34z"/>
<path style="fill:#deede9; stroke:none;" d="M32 35L33 36L32 35M67 37C80.0868 33.8843 95.5764 36 109 36L189 36C181.121 32.6939 168.534 35 160 35L96 35L76 35C72.6832 35.0015 69.2757 34.3958 67 37z"/>
<path style="fill:#41a88c; stroke:none;" d="M190 35L190 69C191.328 65.8344 191 62.4186 191 59C191 51.7847 192.802 41.6774 190 35z"/>
<path style="fill:#c5e2da; stroke:none;" d="M223 35L224 36L223 35z"/>
<path style="fill:#87c5b2; stroke:none;" d="M31.6667 36.3333C31.2222 36.7778 32.2778 36.7222 32.3333 36.6667C32.7778 36.2222 31.7222 36.2778 31.6667 36.3333z"/>
<path style="fill:#fefefe; stroke:none;" d="M68 36L68 68L100 68C103.52 68 109.679 66.8818 111.972 70.3179C115.163 75.0996 113 86.3892 113 92C100.323 92.1049 87.308 93.6822 75 96.6682C68.4671 98.2531 61.4009 99.8177 56 104C61.9117 104.697 67.4143 100.682 73 98.9738C81.2265 96.458 90.4483 95.3804 99 94.9614C102.47 94.7914 109.515 91.8916 111.972 95.3573C113.424 97.404 112.995 100.641 113 103L113 119L144 119L144 94L165 95C159.984 91.5732 150.061 92.1251 144 92L144 68C141.194 74.6867 143 84.7673 143 92C140.885 84.8448 142 76.4332 142 69C139.118 75.8693 141.751 84.6454 140 92C145.535 97.8624 143 110.343 143 118C136.405 113.381 122.886 116 115 116C116.92 111.285 115.85 106.057 116.036 101.001C116.478 89.02 116 77.0471 116 65L73 65C78.1462 63.4789 83.6608 64 89 64L116 64C111.785 62.2313 106.536 63 102 63L73 63L73 40L183 40L183 63L140 63C144.215 64.7687 149.464 64 154 64L183 64C171.078 67.524 155.426 65 143 65L143 67L187 67L187 37L110 37C96.2662 37 81.5294 38.5118 68 36z"/>
<path style="fill:#ffffff; stroke:none;" d="M70 36C73.9586 37.6611 78.7397 37 83 37L106 37L187 37L187 67L143 67L143 65L183 65C178.785 63.2313 173.536 64 169 64L140 64C145.146 62.4789 150.661 63 156 63L183 63L183 40L73 40L73 63L116 63C110.854 64.5211 105.339 64 100 64L73 64C77.2152 65.7687 82.4645 65 87 65L116 65C116 76.6851 116.301 88.3711 116.025 100.039C115.901 105.318 116.832 110.984 115 116C122.45 116 135.935 113.405 142 118C144.328 112.453 145.142 95.7086 140 92C142.115 84.8448 141 76.4332 141 69C143.115 76.1552 142 84.5668 142 92C144.806 85.3133 143 75.2326 143 68L188 68C188 57.633 186.591 46.1198 189 36L70 36z"/>
<path style="fill:#e1efec; stroke:none;" d="M31 37L32 38L31 37z"/>
<path style="fill:#d3e8e2; stroke:none;" d="M67 37L67 69C68.3283 65.8344 67.9998 62.4186 68 59C68.0004 52.3144 69.599 43.1937 67 37z"/>
<path style="fill:#eff6f4; stroke:none;" d="M188 37L188 68L144 68C148.469 69.8752 154.191 69 159 69L189 69L189 49C189 45.0172 189.552 40.6987 188 37z"/>
<path style="fill:#8fcbba; stroke:none;" d="M224 37C224.526 39.5431 224.878 40.535 227 42C226.142 40.0378 225.366 38.6314 224 37z"/>
<path style="fill:#6fbaa5; stroke:none;" d="M31.3333 38.6667C31.2778 38.7222 31.2222 39.7778 31.6667 39.3333C31.7222 39.2778 31.7778 38.2222 31.3333 38.6667z"/>
<path style="fill:#a1d4c6; stroke:none;" d="M30 39L30 42C30.6961 40.4463 30.6961 40.5537 30 39z"/>
<path style="fill:#e4eee5; stroke:none;" d="M29 41L30 42L29 41z"/>
<path style="fill:#99d0c1; stroke:none;" d="M29 42L30 43L29 42z"/>
<path style="fill:#72bda9; stroke:none;" d="M225 42C226.001 43.9238 226.077 44.0985 228 45C226.999 43.0762 226.922 42.9015 225 42z"/>
<path style="fill:#6dbaa4; stroke:none;" d="M29 43L27 47C28.8595 45.7345 29.3689 45.2226 29 43z"/>
<path style="fill:#6ebba6; stroke:none;" d="M227.667 46.3333C227.222 46.7778 228.278 46.7222 228.333 46.6667C228.778 46.2222 227.722 46.2778 227.667 46.3333z"/>
<path style="fill:#87c6b5; stroke:none;" d="M26 48L26 52C27.0811 50.542 27.4361 49.7519 28 48L26 48z"/>
<path style="fill:#74bda8; stroke:none;" d="M228 48L229 52C229.751 49.9536 229.656 49.4043 228 48z"/>
<path style="fill:#52ae92; stroke:none;" d="M230.333 50.6667C230.278 50.7222 230.222 51.7778 230.667 51.3333C230.722 51.2777 230.778 50.2223 230.333 50.6667z"/>
<path style="fill:#8fcabb; stroke:none;" d="M25.3333 52.6667C25.2778 52.7222 25.2222 53.7778 25.6667 53.3333C25.7222 53.2778 25.7778 52.2222 25.3333 52.6667z"/>
<path style="fill:#8dcab9; stroke:none;" d="M230.333 52.6667C230.278 52.7222 230.222 53.7778 230.667 53.3333C230.722 53.2777 230.778 52.2223 230.333 52.6667z"/>
<path style="fill:#90ccbc; stroke:none;" d="M24.3333 54.6667C24.2778 54.7222 24.2223 55.7777 24.6667 55.3333C24.7222 55.2778 24.7778 54.2222 24.3333 54.6667z"/>
<path style="fill:#84c6b5; stroke:none;" d="M231 54C231.689 58.6 232.971 63.3587 237 66C235.752 61.6667 233.883 57.4798 231 54z"/>
<path style="fill:#98cebf; stroke:none;" d="M23.3333 56.6667C23.2778 56.7222 23.2222 57.7778 23.6667 57.3333C23.7222 57.2778 23.7778 56.2222 23.3333 56.6667z"/>
<path style="fill:#bbddd3; stroke:none;" d="M22.3333 58.6667C22.2778 58.7222 22.2222 59.7778 22.6667 59.3333C22.7222 59.2778 22.7778 58.2222 22.3333 58.6667z"/>
<path style="fill:#ddece7; stroke:none;" d="M21.3333 60.6667C21.2778 60.7222 21.2222 61.7777 21.6667 61.3333C21.7222 61.2778 21.7778 60.2222 21.3333 60.6667z"/>
<path style="fill:#6bbba6; stroke:none;" d="M22.3333 60.6667C22.2778 60.7222 22.2223 61.7777 22.6667 61.3333C22.7222 61.2778 22.7778 60.2222 22.3333 60.6667z"/>
<path style="fill:#8cc7b5; stroke:none;" d="M20 62C20.5451 63.6352 20.3648 63.4549 22 64L22 62L20 62z"/>
<path style="fill:#e9f2f1; stroke:none;" d="M20 63L21 64L20 63z"/>
<path style="fill:#b8ddd3; stroke:none;" d="M19 64L18 68C19.8698 66.7708 20.2235 66.1317 21 64L19 64z"/>
<path style="fill:#bbdcd3; stroke:none;" d="M236.333 66.6667C236.278 66.7222 236.222 67.7778 236.667 67.3333C236.722 67.2777 236.778 66.2223 236.333 66.6667z"/>
<path style="fill:#7bc1ad; stroke:none;" d="M18 68L18 71C18.6961 69.4463 18.6961 69.5537 18 68z"/>
<path style="fill:#eff6f4; stroke:none;" d="M68 68C72.4688 69.8752 78.1913 69 83 69L112 69C107.531 67.1248 101.809 68 97 68L68 68z"/>
<path style="fill:#81c4b3; stroke:none;" d="M67 69C71.4688 70.8752 77.1913 70 82 70L111 70L111 91C113.603 84.7977 112 75.7023 112 69L67 69z"/>
<path style="fill:#eff6f3; stroke:none;" d="M112 69L112 92C114.284 86.5574 114.284 74.4426 112 69z"/>
<path style="fill:#81c4b3; stroke:none;" d="M144 69L144 92L151 92C148.948 91.1257 147.253 91.0472 145 91L145 70L189 70C184.531 68.1248 178.809 69 174 69L144 69z"/>
<path style="fill:#77bea9; stroke:none;" d="M237 69L238 73C238.553 70.9922 238.303 70.6676 237 69z"/>
<path style="fill:#34a385; stroke:none;" d="M67 70C71.2151 71.7687 76.4645 71 81 71L110 71L110 90L105 90C107.052 90.8743 108.747 90.9528 111 91L111 70L67 70M145 70L145 91L152 91C149.948 90.1258 148.253 90.0472 146 90L146 71L189 71C184.531 69.1248 178.809 70 174 70L145 70z"/>
<path style="fill:#a3d1c3; stroke:none;" d="M17.3333 71.6667C17.2778 71.7222 17.2222 72.7777 17.6667 72.3333C17.7222 72.2778 17.7778 71.2222 17.3333 71.6667z"/>
<path style="fill:#cce3dd; stroke:none;" d="M16 74L17 75L16 74z"/>
<path style="fill:#bdddd5; stroke:none;" d="M239 74L240 75L239 74z"/>
<path style="fill:#deedea; stroke:none;" d="M15 76L16 77L15 76z"/>
<path style="fill:#bddfd6; stroke:none;" d="M240 76L241 77L240 76z"/>
<path style="fill:#82c2b0; stroke:none;" d="M14.6667 77.3333C14.2222 77.7778 15.2778 77.7222 15.3333 77.6667C15.7778 77.2222 14.7222 77.2778 14.6667 77.3333z"/>
<path style="fill:#dfefeb; stroke:none;" d="M14 78L15 79L14 78z"/>
<path style="fill:#8bc8b7; stroke:none;" d="M241 78C241.526 80.5431 241.878 81.535 244 83C243.142 81.0378 242.366 79.6314 241 78z"/>
<path style="fill:#6ebba5; stroke:none;" d="M14.3333 79.6667C14.2778 79.7222 14.2222 80.7778 14.6667 80.3333C14.7223 80.2777 14.7778 79.2222 14.3333 79.6667z"/>
<path style="fill:#d6eae5; stroke:none;" d="M13 80L14 81L13 80z"/>
<path style="fill:#8cc8b8; stroke:none;" d="M13.3333 81.6667C13.2778 81.7222 13.2222 82.7778 13.6667 82.3333C13.7223 82.2777 13.7778 81.2222 13.3333 81.6667z"/>
<path style="fill:#d9eae4; stroke:none;" d="M12 82L13 83L12 82z"/>
<path style="fill:#a0d2c4; stroke:none;" d="M12.3333 83.6667C12.2778 83.7222 12.2222 84.7778 12.6667 84.3333C12.7223 84.2777 12.7778 83.2223 12.3333 83.6667z"/>
<path style="fill:#e8f0e9; stroke:none;" d="M11 84L12 85L11 84z"/>
<path style="fill:#82c4af; stroke:none;" d="M243 84L243 86C244.635 85.455 244.455 85.6351 245 84L243 84z"/>
<path style="fill:#6fbba5; stroke:none;" d="M11.6667 85.3333C11.2222 85.7778 12.2778 85.7222 12.3333 85.6667C12.7777 85.2223 11.7223 85.2777 11.6667 85.3333z"/>
<path style="fill:#9bd1c3; stroke:none;" d="M10 87L10 90C11.0154 88.8607 11.3087 88.3884 12 87L10 87z"/>
<path style="fill:#a2d3c6; stroke:none;" d="M245.333 88.6667C245.278 88.7222 245.222 89.7778 245.667 89.3333C245.722 89.2778 245.778 88.2222 245.333 88.6667z"/>
<path style="fill:#5db399; stroke:none;" d="M246.333 88.6667C246.278 88.7222 246.222 89.7778 246.667 89.3333C246.722 89.2778 246.778 88.2222 246.333 88.6667z"/>
<path style="fill:#a7d6c9; stroke:none;" d="M9.33333 90.6667C9.2778 90.7222 9.22221 91.7778 9.66667 91.3333C9.72226 91.2777 9.77778 90.2222 9.33333 90.6667z"/>
<path style="fill:#abd6ca; stroke:none;" d="M246 90L247 94C247.393 92.076 247.146 91.6405 246 90z"/>
<path style="fill:#32a184; stroke:none;" d="M92 91C94.6127 92.0977 97.1645 91.9928 100 92C97.3873 90.9023 94.8355 91.0072 92 91z"/>
<path style="fill:#75bca9; stroke:none;" d="M101 91C102.769 91.7789 104.036 91.9124 106 92C104.231 91.2211 102.964 91.0876 101 91z"/>
<path style="fill:#a0d2c5; stroke:none;" d="M106 91C108.052 91.8743 109.747 91.9528 112 92C109.948 91.1258 108.253 91.0472 106 91z"/>
<path style="fill:#6fbaa5; stroke:none;" d="M151 91C152.248 91.6848 152.549 91.7488 154 92C152.752 91.3152 152.452 91.2512 151 91z"/>
<path style="fill:#b6dbd1; stroke:none;" d="M8.33333 92.6667C8.2778 92.7222 8.22221 93.7778 8.66667 93.3333C8.72227 93.2777 8.77775 92.2223 8.33333 92.6667z"/>
<path style="fill:#7dc3b1; stroke:none;" d="M91 92C93.8897 93.2129 96.8741 92.9983 100 93C97.1103 91.787 94.1259 92.0017 91 92z"/>
<path style="fill:#d6e9e3; stroke:none;" d="M100 92C102.052 92.8742 103.747 92.9528 106 93C103.948 92.1258 102.253 92.0472 100 92z"/>
<path style="fill:#c6e3d9; stroke:none;" d="M150 92C151.506 92.683 152.315 92.8259 154 93C152.494 92.317 151.685 92.1741 150 92z"/>
<path style="fill:#93ccbd; stroke:none;" d="M154 92C155.769 92.7789 157.036 92.9124 159 93C157.231 92.2211 155.964 92.0876 154 92z"/>
<path style="fill:#61b59d; stroke:none;" d="M159 92C160.769 92.7789 162.036 92.9124 164 93C162.231 92.2211 160.964 92.0876 159 92z"/>
<path style="fill:#8bc9b8; stroke:none;" d="M88 93C89.2484 93.6848 89.5484 93.7488 91 94C89.7517 93.3152 89.4515 93.2512 88 93z"/>
<path style="fill:#cbe3dd; stroke:none;" d="M91.6667 93.3333C91.2222 93.7778 92.2778 93.7222 92.3333 93.6667C92.7777 93.2222 91.7222 93.2778 91.6667 93.3333z"/>
<path style="fill:#e7f2ee; stroke:none;" d="M108 93C109.506 93.683 110.315 93.8259 112 94C110.494 93.317 109.685 93.1741 108 93z"/>
<path style="fill:#a8d4c6; stroke:none;" d="M163.667 93.3333C163.222 93.7778 164.278 93.7222 164.333 93.6667C164.778 93.2222 163.722 93.2778 163.667 93.3333z"/>
<path style="fill:#67b9a3; stroke:none;" d="M165 93C166.506 93.683 167.315 93.8259 169 94C167.494 93.317 166.685 93.1741 165 93z"/>
<path style="fill:#9ccec0; stroke:none;" d="M82 94C83.2484 94.6848 83.5484 94.7488 85 95C83.7517 94.3152 83.4515 94.2512 82 94z"/>
<path style="fill:#a3d0c3; stroke:none;" d="M103 94C105.052 94.8742 106.747 94.9528 109 95C106.948 94.1258 105.253 94.0472 103 94z"/>
<path style="fill:#79c1ae; stroke:none;" d="M109 94C112.866 100.951 111 111.237 111 119C113.907 112.072 112 101.497 112 94L109 94z"/>
<path style="fill:#eff6f3; stroke:none;" d="M112 94L112 119C114.413 113.25 114.413 99.7503 112 94z"/>
<path style="fill:#81c5b2; stroke:none;" d="M144 94L144 119C147.087 111.643 142.033 101.557 147 95C145.752 94.3152 145.452 94.2512 144 94z"/>
<path style="fill:#acd6ca; stroke:none;" d="M147 94C148.769 94.7789 150.036 94.9124 152 95C150.231 94.2211 148.964 94.0876 147 94z"/>
<path style="fill:#cde6df; stroke:none;" d="M152 94C153.248 94.6848 153.548 94.7488 155 95C153.752 94.3152 153.452 94.2512 152 94z"/>
<path style="fill:#e9f5f2; stroke:none;" d="M163 95C165.393 95.7408 167.493 95.3021 170 95C167.477 94.0098 165.642 94.3831 163 95z"/>
<path style="fill:#bfded5; stroke:none;" d="M170 94C171.248 94.6848 171.548 94.7488 173 95C171.752 94.3152 171.452 94.2512 170 94z"/>
<path style="fill:#72c0aa; stroke:none;" d="M247 94C248.284 98.6954 249.792 104.242 254 107C252.625 102.226 250.55 97.513 247 94z"/>
<path style="fill:#7ec5b3; stroke:none;" d="M7.33333 95.6667C7.27776 95.7222 7.22221 96.7778 7.66667 96.3333C7.72221 96.2778 7.77776 95.2222 7.33333 95.6667z"/>
<path style="fill:#aad5c9; stroke:none;" d="M77.6667 95.3333C77.2222 95.7778 78.2778 95.7222 78.3333 95.6667C78.7778 95.2222 77.7222 95.2778 77.6667 95.3333z"/>
<path style="fill:#cce6dd; stroke:none;" d="M91.6667 95.3333C91.2222 95.7778 92.2778 95.7222 92.3333 95.6667C92.7777 95.2222 91.7222 95.2778 91.6667 95.3333z"/>
<path style="fill:#a5d2c5; stroke:none;" d="M93.6667 95.3333C93.2222 95.7778 94.2778 95.7222 94.3333 95.6667C94.7778 95.2222 93.7222 95.2778 93.6667 95.3333z"/>
<path style="fill:#7bc0ac; stroke:none;" d="M95.6667 95.3333C95.2222 95.7778 96.2778 95.7222 96.3333 95.6667C96.7778 95.2222 95.7222 95.2778 95.6667 95.3333z"/>
<path style="fill:#4fae94; stroke:none;" d="M146 95C146 101.022 148.361 113.398 144.682 118.424C142.777 121.026 139.775 120.383 136.999 120.165C131.029 119.697 124.985 120.08 119 119.996C116.283 119.958 112.768 120.094 111.028 117.566C107.708 112.743 110 100.723 110 95C103.341 95 97.5183 96.1447 91 96.9105C83.5439 97.7864 75.2308 98.0497 68.1698 100.799C64.2611 102.322 57.2963 104.999 57.2963 110C57.2963 115.704 64.7342 117.376 69 118.661C80.9146 122.251 93.4975 124.562 106 124.871C115.868 125.115 126.04 123.953 136 124.001C149.977 124.068 164.278 124.997 178 120.986C183.864 119.272 193.316 118.718 197.396 113.61C202.295 107.475 193.324 103.092 188.715 101.3C175.942 96.3344 159.573 95 146 95z"/>
<path style="fill:#39a588; stroke:none;" d="M110 95L110 119C112.349 113.403 112.349 100.597 110 95z"/>
<path style="fill:#37a587; stroke:none;" d="M145 95L145 119C147.349 113.403 147.349 100.597 145 95z"/>
<path style="fill:#7ec0ae; stroke:none;" d="M158.667 95.3333C158.222 95.7778 159.278 95.7222 159.333 95.6667C159.778 95.2222 158.722 95.2778 158.667 95.3333z"/>
<path style="fill:#aad5c8; stroke:none;" d="M160 95C161.248 95.6848 161.548 95.7488 163 96C161.752 95.3152 161.452 95.2512 160 95z"/>
<path style="fill:#fcfdfd; stroke:none;" d="M166 95C173.721 98.7106 183.04 98.2713 191 102.04C193.702 103.319 197.513 105.179 198.673 108.174C199.993 111.581 196.51 114.351 193.995 115.954C187.786 119.911 181.036 120.836 174 122.285C146.243 128.002 114.006 128.505 86 123.742C76.9927 122.21 52.8806 118.084 58 105C52.6592 104.015 47.5096 108.083 49.608 113.996C50.7925 117.334 53.94 119.595 57 121.084C70.1036 127.46 90.4263 131.557 105 130.791C111.427 130.453 117.591 128.11 124 128.005C128.573 127.93 133.463 127.578 138 128.209C142.731 128.867 147.121 130.865 152 130.625C165.335 129.969 179.223 127.388 192 123.56C196.766 122.132 203.542 119.663 205.968 114.957C208.957 109.161 203.575 105.121 199.039 102.84C188.966 97.7757 177.311 95.0936 166 95z"/>
<path style="fill:#e1f1ed; stroke:none;" d="M173 95C174.506 95.683 175.315 95.8259 177 96C175.494 95.317 174.685 95.1741 173 95z"/>
<path style="fill:#98ccbc; stroke:none;" d="M177 95C178.248 95.6848 178.549 95.7488 180 96C178.752 95.3152 178.452 95.2512 177 95z"/>
<path style="fill:#a1d2c5; stroke:none;" d="M72.6667 96.3333C72.2222 96.7778 73.2777 96.7223 73.3333 96.6667C73.7778 96.2222 72.7222 96.2778 72.6667 96.3333z"/>
<path style="fill:#c7e5dc; stroke:none;" d="M74 96C75.2484 96.6848 75.5484 96.7488 77 97C75.7517 96.3152 75.4515 96.2512 74 96z"/>
<path style="fill:#b1d8cd; stroke:none;" d="M85.6667 96.3333C85.2222 96.7778 86.2778 96.7222 86.3333 96.6667C86.7778 96.2222 85.7222 96.2778 85.6667 96.3333z"/>
<path style="fill:#65b9a2; stroke:none;" d="M87 96C89.6127 97.0977 92.1645 96.9928 95 97C92.3873 95.9023 89.8355 96.0072 87 96z"/>
<path style="fill:#67b9a4; stroke:none;" d="M164 96C165.506 96.683 166.315 96.8259 168 97C166.494 96.317 165.685 96.1741 164 96z"/>
<path style="fill:#a9d5c8; stroke:none;" d="M168 96C169.248 96.6848 169.549 96.7488 171 97C169.752 96.3152 169.452 96.2512 168 96z"/>
<path style="fill:#cce7df; stroke:none;" d="M179 96C180.248 96.6848 180.548 96.7488 182 97C180.752 96.3152 180.452 96.2512 179 96z"/>
<path style="fill:#8ac6b6; stroke:none;" d="M182.667 96.3333C182.222 96.7778 183.278 96.7222 183.333 96.6667C183.778 96.2222 182.722 96.2778 182.667 96.3333z"/>
<path style="fill:#8dc9b8; stroke:none;" d="M6.33333 97.6667C6.27774 97.7223 6.22222 98.7778 6.66667 98.3333C6.72219 98.2778 6.77778 97.2222 6.33333 97.6667z"/>
<path style="fill:#94cdbd; stroke:none;" d="M68 97C69.2484 97.6848 69.5484 97.7488 71 98C69.7517 97.3152 69.4515 97.2512 68 97z"/>
<path style="fill:#90cdbd; stroke:none;" d="M79 97C80.506 97.683 81.3148 97.8259 83 98C81.4939 97.317 80.6852 97.1741 79 97z"/>
<path style="fill:#6ebaa6; stroke:none;" d="M83 97C84.2484 97.6848 84.5484 97.7488 86 98C84.7517 97.3152 84.4515 97.2512 83 97z"/>
<path style="fill:#8dcbbb; stroke:none;" d="M172 97C173.248 97.6848 173.548 97.7488 175 98C173.752 97.3152 173.452 97.2512 172 97z"/>
<path style="fill:#c5e2d9; stroke:none;" d="M175.667 97.3333C175.222 97.7778 176.278 97.7222 176.333 97.6667C176.778 97.2222 175.722 97.2777 175.667 97.3333z"/>
<path style="fill:#aad7ca; stroke:none;" d="M184.667 97.3333C184.222 97.7778 185.278 97.7222 185.333 97.6667C185.778 97.2222 184.722 97.2777 184.667 97.3333z"/>
<path style="fill:#7fc3b0; stroke:none;" d="M186.667 97.3333C186.222 97.7778 187.278 97.7222 187.333 97.6667C187.778 97.2222 186.722 97.2777 186.667 97.3333z"/>
<path style="fill:#72beaa; stroke:none;" d="M64 98C65.2484 98.6848 65.5484 98.7488 67 99C65.7517 98.3152 65.4515 98.2512 64 98z"/>
<path style="fill:#dfeee9; stroke:none;" d="M67.6667 98.3333C67.2222 98.7778 68.2778 98.7222 68.3333 98.6667C68.7778 98.2222 67.7222 98.2778 67.6667 98.3333z"/>
<path style="fill:#bbe0d5; stroke:none;" d="M74 98C75.2484 98.6848 75.5484 98.7488 77 99C75.7517 98.3152 75.4515 98.2512 74 98z"/>
<path style="fill:#7fc1af; stroke:none;" d="M77.6667 98.3333C77.2222 98.7778 78.2778 98.7222 78.3333 98.6667C78.7778 98.2222 77.7222 98.2778 77.6667 98.3333z"/>
<path style="fill:#7fc2af; stroke:none;" d="M176.667 98.3333C176.222 98.7778 177.278 98.7222 177.333 98.6667C177.778 98.2222 176.722 98.2777 176.667 98.3333z"/>
<path style="fill:#abd9cd; stroke:none;" d="M178 98C179.248 98.6848 179.548 98.7488 181 99C179.752 98.3152 179.452 98.2512 178 98z"/>
<path style="fill:#8ecaba; stroke:none;" d="M188.667 98.3333C188.222 98.7778 189.278 98.7222 189.333 98.6667C189.778 98.2222 188.722 98.2778 188.667 98.3333z"/>
<path style="fill:#b1d7cb; stroke:none;" d="M5.33333 99.6667C5.27773 99.7223 5.22225 100.778 5.66667 100.333C5.7222 100.278 5.77779 99.2222 5.33333 99.6667z"/>
<path style="fill:#cbe4dd; stroke:none;" d="M63.6667 99.3333C63.2222 99.7778 64.2778 99.7222 64.3333 99.6667C64.7778 99.2222 63.7222 99.2778 63.6667 99.3333z"/>
<path style="fill:#cde8e0; stroke:none;" d="M70 99C71.2484 99.6848 71.5484 99.7488 73 100C71.7517 99.3152 71.4515 99.2512 70 99z"/>
<path style="fill:#98cdbd; stroke:none;" d="M181.667 99.3333C181.222 99.7778 182.278 99.7222 182.333 99.6667C182.778 99.2222 181.722 99.2778 181.667 99.3333z"/>
<path style="fill:#cde9e0; stroke:none;" d="M183 99C184.248 99.6848 184.548 99.7488 186 100C184.752 99.3152 184.452 99.2512 183 99z"/>
<path style="fill:#d5ebe5; stroke:none;" d="M58 101C59.8092 101.574 60.0688 101.465 62 101C60.3407 100.594 59.7582 100.691 58 101z"/>
<path style="fill:#cfe6df; stroke:none;" d="M186.667 100.333C186.222 100.778 187.278 100.722 187.333 100.667C187.778 100.222 186.722 100.278 186.667 100.333z"/>
<path style="fill:#8cc7b6; stroke:none;" d="M195 100L196 101L195 100z"/>
<path style="fill:#d3e6e1; stroke:none;" d="M4.33333 101.667C4.27776 101.722 4.22221 102.778 4.66667 102.333C4.72221 102.278 4.77776 101.222 4.33333 101.667z"/>
<path style="fill:#50af95; stroke:none;" d="M149 102L149 117L155 117C152.894 117.644 151.205 117.906 149 118C152.65 119.528 156.161 118.553 160 118.169C167.069 117.462 174.077 116.706 181 115C180.35 113.7 180.853 114 179 114L192 111C192 109.203 191.986 109.479 191 108C186.971 108.352 184.78 106.184 181 105.313C178.135 104.653 174.922 105 172 105L176 104C167.572 99.5179 157.999 101.814 149 102z"/>
<path style="fill:#d3eae4; stroke:none;" d="M195 101C196.248 101.685 196.549 101.749 198 102C196.752 101.315 196.452 101.251 195 101z"/>
<path style="fill:#d1e8e1; stroke:none;" d="M56.6667 102.333C56.2222 102.778 57.2778 102.722 57.3333 102.667C57.7778 102.222 56.7222 102.278 56.6667 102.333z"/>
<path style="fill:#79c1ae; stroke:none;" d="M63 102C64.2484 102.685 64.5484 102.749 66 103C64.7517 102.315 64.4515 102.251 63 102z"/>
<path style="fill:#78c2ae; stroke:none;" d="M190 102C191.248 102.685 191.548 102.749 193 103C191.752 102.315 191.452 102.251 190 102z"/>
<path style="fill:#a2d3c6; stroke:none;" d="M198.667 102.333C198.222 102.778 199.278 102.722 199.333 102.667C199.778 102.222 198.722 102.278 198.667 102.333z"/>
<path style="fill:#88c6b4; stroke:none;" d="M3 103C3.54506 104.635 3.36483 104.455 5 105L5 103L3 103z"/>
<path style="fill:#c7e3da; stroke:none;" d="M54.6667 103.333C54.2222 103.778 55.2778 103.722 55.3333 103.667C55.7778 103.222 54.7222 103.278 54.6667 103.333z"/>
<path style="fill:#7bc2af; stroke:none;" d="M61.6667 103.333C61.2222 103.778 62.2778 103.722 62.3333 103.667C62.7778 103.222 61.7222 103.278 61.6667 103.333z"/>
<path style="fill:#add9cc; stroke:none;" d="M193.667 103.333C193.222 103.778 194.278 103.722 194.333 103.667C194.778 103.222 193.722 103.278 193.667 103.333z"/>
<path style="fill:#c7e2da; stroke:none;" d="M200 103L201 104L200 103z"/>
<path style="fill:#ddece9; stroke:none;" d="M3 104L4 105L3 104z"/>
<path style="fill:#bcdcd4; stroke:none;" d="M53 104L54 105L53 104z"/>
<path style="fill:#c5e4db; stroke:none;" d="M59 104L60 105L59 104z"/>
<path style="fill:#80c3b0; stroke:none;" d="M60 104L61 105L60 104z"/>
<path style="fill:#86c6b3; stroke:none;" d="M195 104L196 105L195 104z"/>
<path style="fill:#b6dacf; stroke:none;" d="M202 104L203 105L202 104z"/>
<path style="fill:#b0d8cd; stroke:none;" d="M2 105L1 109C2.8698 107.771 3.22352 107.132 4 105L2 105z"/>
<path style="fill:#a9d5c8; stroke:none;" d="M58 105L59 106L58 105z"/>
<path style="fill:#9acfc1; stroke:none;" d="M57 106L58 107L57 106z"/>
<path style="fill:#abd6c9; stroke:none;" d="M198 106L199 107L198 106z"/>
<path style="fill:#b5dcd0; stroke:none;" d="M56 107L57 108L56 107z"/>
<path style="fill:#b9dcd2; stroke:none;" d="M253.333 107.667C253.278 107.722 253.222 108.778 253.667 108.333C253.722 108.278 253.778 107.222 253.333 107.667z"/>
<path style="fill:#61b7a0; stroke:none;" d="M56 108L56 112C56.7102 110.241 56.7102 109.759 56 108z"/>
<path style="fill:#61b7a2; stroke:none;" d="M199 108L199 112C199.71 110.24 199.71 109.759 199 108z"/>
<path style="fill:#c0e0d7; stroke:none;" d="M206 108L207 109L206 108z"/>
<path style="fill:#7cc1ad; stroke:none;" d="M1 109L1 112C1.69611 110.446 1.6961 110.554 1 109z"/>
<path style="fill:#beddd4; stroke:none;" d="M48 110L48 113C48.6961 111.446 48.6961 111.554 48 110z"/>
<path style="fill:#bddcd3; stroke:none;" d="M207 110L207 113C207.696 111.446 207.696 111.554 207 110z"/>
<path style="fill:#85c4b2; stroke:none;" d="M254.333 110.667C254.278 110.722 254.222 111.778 254.667 111.333C254.722 111.278 254.778 110.222 254.333 110.667z"/>
<path style="fill:#a2d1c4; stroke:none;" d="M0.333333 112.667C0.277799 112.722 0.222213 113.778 0.666667 113.333C0.722235 113.278 0.777787 112.222 0.333333 112.667z"/>
<path style="fill:#b6dad0; stroke:none;" d="M255 113L256 114L255 113z"/>
<path style="fill:#a0d1c3; stroke:none;" d="M60 115L61 116L60 115z"/>
<path style="fill:#a5d2c5; stroke:none;" d="M195 115L196 116L195 115z"/>
<path style="fill:#9acebf; stroke:none;" d="M0 116L1 117L0 116z"/>
<path style="fill:#86c3b3; stroke:none;" d="M50 116L51 117L50 116z"/>
<path style="fill:#a0d0c1; stroke:none;" d="M62 116L63 117L62 116z"/>
<path style="fill:#aad3c8; stroke:none;" d="M193 116L194 117L193 116z"/>
<path style="fill:#86c3b3; stroke:none;" d="M205 116L206 117L205 116z"/>
<path style="fill:#add6ca; stroke:none;" d="M255 116L256 117L255 116z"/>
<path style="fill:#000000; stroke:none;" d="M0 117L0 256L126 256C122.375 249.702 116.063 244.495 111.282 239C99.9892 226.022 88.1248 213.504 76.4244 200.91C60.2324 183.483 44.0353 165.804 28.2847 147.996C19.1357 137.652 10.4575 126.046 0 117z"/>
<path style="fill:#93cabb; stroke:none;" d="M1 117L2 118L1 117z"/>
<path style="fill:#85c5b3; stroke:none;" d="M51 117L52 118L51 117z"/>
<path style="fill:#bfdfd6; stroke:none;" d="M64 117L65 118L64 117z"/>
<path style="fill:#8bc7b6; stroke:none;" d="M204 117L205 118L204 117z"/>
<path style="fill:#a1d2c4; stroke:none;" d="M254 117C252.652 118.768 251.878 119.983 251 122C253.015 120.356 254.098 119.587 254 117z"/>
<path style="fill:#000000; stroke:none;" d="M255 117C243.819 132.888 228.525 146.91 215.282 161.09C196.052 181.678 177.661 203.077 158.829 224C149.389 234.489 137.91 244.289 130 256L256 256L256 159L256 131C256 126.464 256.769 121.215 255 117z"/>
<path style="fill:#86c5b4; stroke:none;" d="M2 118C3.47977 121.166 5.16844 122.951 8 125C6.52024 121.834 4.83157 120.049 2 118z"/>
<path style="fill:#acd8cc; stroke:none;" d="M66 118C67.2484 118.685 67.5484 118.749 69 119C67.7517 118.315 67.4515 118.251 66 118z"/>
<path style="fill:#a7d5c9; stroke:none;" d="M187 118C188.248 118.685 188.548 118.749 190 119C188.752 118.315 188.452 118.251 187 118z"/>
<path style="fill:#9dd2c3; stroke:none;" d="M69.6667 119.333C69.2222 119.778 70.2778 119.722 70.3333 119.667C70.7778 119.222 69.7222 119.278 69.6667 119.333z"/>
<path style="fill:#71bba6; stroke:none;" d="M71.6667 119.333C71.2222 119.778 72.2778 119.722 72.3333 119.667C72.7778 119.222 71.7222 119.278 71.6667 119.333z"/>
<path style="fill:#9ed2c5; stroke:none;" d="M112 119C114.89 120.213 117.874 119.998 121 120C118.11 118.787 115.126 119.002 112 119z"/>
<path style="fill:#c0dfd6; stroke:none;" d="M121 119C126.469 121.295 134.099 120 140 120C134.531 117.705 126.901 119 121 119z"/>
<path style="fill:#9bd1c2; stroke:none;" d="M140 119C141.506 119.683 142.315 119.826 144 120C142.494 119.317 141.685 119.174 140 119z"/>
<path style="fill:#86c6b5; stroke:none;" d="M183 119C184.248 119.685 184.548 119.749 186 120C184.752 119.315 184.452 119.251 183 119z"/>
<path style="fill:#e0edea; stroke:none;" d="M186.667 119.333C186.222 119.778 187.278 119.722 187.333 119.667C187.778 119.222 186.722 119.278 186.667 119.333z"/>
<path style="fill:#a3d4c7; stroke:none;" d="M201 119L202 120L201 119z"/>
<path style="fill:#7bc1ad; stroke:none;" d="M55 120L56 121L55 120z"/>
<path style="fill:#abd6c9; stroke:none;" d="M72.6667 120.333C72.2222 120.778 73.2777 120.722 73.3333 120.667C73.7778 120.222 72.7222 120.278 72.6667 120.333z"/>
<path style="fill:#2a9e7f; stroke:none;" d="M139 120C140.769 120.779 142.036 120.912 144 121C142.231 120.221 140.964 120.088 139 120z"/>
<path style="fill:#67b9a3; stroke:none;" d="M178 120C179.248 120.685 179.548 120.749 181 121C179.752 120.315 179.452 120.251 178 120z"/>
<path style="fill:#afd7ca; stroke:none;" d="M181 120C182.248 120.685 182.548 120.749 184 121C182.752 120.315 182.452 120.251 181 120z"/>
<path style="fill:#bee0d7; stroke:none;" d="M199 120L200 121L199 120z"/>
<path style="fill:#7dc1ad; stroke:none;" d="M200 120L201 121L200 120z"/>
<path style="fill:#9ccebf; stroke:none;" d="M77.6667 121.333C77.2222 121.778 78.2778 121.722 78.3333 121.667C78.7778 121.222 77.7222 121.278 77.6667 121.333z"/>
<path style="fill:#c2dfd7; stroke:none;" d="M177.667 121.333C177.222 121.778 178.278 121.722 178.333 121.667C178.778 121.222 177.722 121.278 177.667 121.333z"/>
<path style="fill:#c0dfd6; stroke:none;" d="M197 121L198 122L197 121z"/>
<path style="fill:#9ccdbe; stroke:none;" d="M60 122L61 123L60 122z"/>
<path style="fill:#a5d1c5; stroke:none;" d="M82.6667 122.333C82.2222 122.778 83.2778 122.722 83.3333 122.667C83.7777 122.222 82.7222 122.278 82.6667 122.333z"/>
<path style="fill:#9ecec1; stroke:none;" d="M170 122C171.248 122.685 171.549 122.749 173 123C171.752 122.315 171.452 122.251 170 122z"/>
<path style="fill:#96ccbc; stroke:none;" d="M195 122L196 123L195 122z"/>
<path style="fill:#c1e0d7; stroke:none;" d="M250 122L251 123L250 122z"/>
<path style="fill:#aad5c7; stroke:none;" d="M63 123L64 124L63 123z"/>
<path style="fill:#e0f0eb; stroke:none;" d="M83 123C84.769 123.779 86.0359 123.912 88 124C86.2309 123.221 84.9641 123.088 83 123z"/>
<path style="fill:#97ccbd; stroke:none;" d="M88 123C89.769 123.779 91.0359 123.912 93 124C91.231 123.221 89.9641 123.088 88 123z"/>
<path style="fill:#8cc7b6; stroke:none;" d="M162.667 123.333C162.222 123.778 163.278 123.722 163.333 123.667C163.778 123.222 162.722 123.278 162.667 123.333z"/>
<path style="fill:#afd7cc; stroke:none;" d="M164.667 123.333C164.222 123.778 165.278 123.722 165.333 123.667C165.778 123.222 164.722 123.278 164.667 123.333z"/>
<path style="fill:#e3f1ed; stroke:none;" d="M166 123C167.506 123.683 168.315 123.826 170 124C168.494 123.317 167.685 123.174 166 123z"/>
<path style="fill:#abd5c8; stroke:none;" d="M192 123L193 124L192 123z"/>
<path style="fill:#c5e3db; stroke:none;" d="M249 123L250 124L249 123z"/>
<path style="fill:#83c6b4; stroke:none;" d="M64 124C65.2484 124.685 65.5484 124.749 67 125C65.7517 124.315 65.4515 124.251 64 124z"/>
<path style="fill:#b1dacf; stroke:none;" d="M93 124C95.0521 124.874 96.7472 124.953 99 125C96.9479 124.126 95.2528 124.047 93 124z"/>
<path style="fill:#89c6b6; stroke:none;" d="M99 124C100.506 124.683 101.315 124.826 103 125C101.494 124.317 100.685 124.174 99 124z"/>
<path style="fill:#35a385; stroke:none;" d="M110 124C113.699 125.552 118.017 125 122 125L144 125C140.301 123.448 135.983 124 132 124L110 124z"/>
<path style="fill:#89c6b5; stroke:none;" d="M151 124C152.769 124.779 154.036 124.912 156 125C154.231 124.221 152.964 124.088 151 124z"/>
<path style="fill:#c5e3db; stroke:none;" d="M156 124C158.052 124.874 159.747 124.953 162 125C159.948 124.126 158.253 124.047 156 124z"/>
<path style="fill:#a5d3c6; stroke:none;" d="M188.667 124.333C188.222 124.778 189.278 124.722 189.333 124.667C189.778 124.222 188.722 124.278 188.667 124.333z"/>
<path style="fill:#6ebca6; stroke:none;" d="M190.667 124.333C190.222 124.778 191.278 124.722 191.333 124.667C191.778 124.222 190.722 124.278 190.667 124.333z"/>
<path style="fill:#bddfd6; stroke:none;" d="M248 124L249 125L248 124z"/>
<path style="fill:#b2dacf; stroke:none;" d="M8 125L9 126L8 125z"/>
<path style="fill:#90cbbb; stroke:none;" d="M67.6667 125.333C67.2222 125.778 68.2778 125.722 68.3333 125.667C68.7778 125.222 67.7222 125.278 67.6667 125.333z"/>
<path style="fill:#b8ddd2; stroke:none;" d="M69.6667 125.333C69.2222 125.778 70.2778 125.722 70.3333 125.667C70.7778 125.222 69.7222 125.278 69.6667 125.333z"/>
<path style="fill:#bdddd4; stroke:none;" d="M103 125C104.769 125.779 106.036 125.912 108 126C106.231 125.221 104.964 125.088 103 125z"/>
<path style="fill:#79c2ae; stroke:none;" d="M108 125C111.959 126.661 116.74 126 121 126L144 126C140.041 124.339 135.26 125 131 125L108 125z"/>
<path style="fill:#b2d9ce; stroke:none;" d="M144 125C146.613 126.098 149.164 125.993 152 126C149.387 124.902 146.836 125.007 144 125z"/>
<path style="fill:#d4e8e1; stroke:none;" d="M183.667 125.333C183.222 125.778 184.278 125.722 184.333 125.667C184.778 125.222 183.722 125.278 183.667 125.333z"/>
<path style="fill:#a4d5c8; stroke:none;" d="M185 125C186.248 125.685 186.548 125.749 188 126C186.752 125.315 186.452 125.251 185 125z"/>
<path style="fill:#b6ddd2; stroke:none;" d="M247 125L248 126L247 125z"/>
<path style="fill:#b4dcd1; stroke:none;" d="M9 126L10 127L9 126z"/>
<path style="fill:#aed8cd; stroke:none;" d="M72.6667 126.333C72.2222 126.778 73.2778 126.722 73.3333 126.667C73.7778 126.222 72.7222 126.278 72.6667 126.333z"/>
<path style="fill:#dbeee8; stroke:none;" d="M74 126C75.2484 126.685 75.5484 126.749 77 127C75.7517 126.315 75.4515 126.251 74 126z"/>
<path style="fill:#e9f2ef; stroke:none;" d="M178 126C179.506 126.683 180.315 126.826 182 127C180.494 126.317 179.685 126.174 178 126z"/>
<path style="fill:#90c9b8; stroke:none;" d="M182 126C183.248 126.685 183.548 126.749 185 127C183.752 126.315 183.452 126.251 182 126z"/>
<path style="fill:#cfe7e1; stroke:none;" d="M246 126C244.651 127.768 243.878 128.982 243 131C245.015 129.356 246.098 128.587 246 126z"/>
<path style="fill:#bbdfd5; stroke:none;" d="M10 127L11 128L10 127z"/>
<path style="fill:#a3d0c3; stroke:none;" d="M76.6667 127.333C76.2222 127.778 77.2778 127.722 77.3333 127.667C77.7778 127.222 76.7222 127.278 76.6667 127.333z"/>
<path style="fill:#bfdfd6; stroke:none;" d="M176 127C177.248 127.685 177.549 127.749 179 128C177.752 127.315 177.452 127.251 176 127z"/>
<path style="fill:#9cd0c3; stroke:none;" d="M10 128C11.8359 130.447 13.2367 131.701 16 133C14.1641 130.553 12.7633 129.299 10 128z"/>
<path style="fill:#97cbbc; stroke:none;" d="M81.6667 128.333C81.2222 128.778 82.2778 128.722 82.3333 128.667C82.7778 128.222 81.7222 128.278 81.6667 128.333z"/>
<path style="fill:#d4e9e3; stroke:none;" d="M83.6667 128.333C83.2222 128.778 84.2778 128.722 84.3333 128.667C84.7778 128.222 83.7222 128.278 83.6667 128.333z"/>
<path style="fill:#ffffff; stroke:none;" d="M107 130C114.986 134.277 113 141.831 113 150L113 203L144 203L144 131L149 131C135.487 124.881 120.956 129.427 107 130z"/>
<path style="fill:#c5e1d9; stroke:none;" d="M170 128C171.248 128.685 171.548 128.749 173 129C171.752 128.315 171.452 128.251 170 128z"/>
<path style="fill:#6cb9a3; stroke:none;" d="M173.667 128.333C173.222 128.778 174.278 128.722 174.333 128.667C174.778 128.222 173.722 128.278 173.667 128.333z"/>
<path style="fill:#73beaa; stroke:none;" d="M86 129C87.2484 129.685 87.5484 129.749 89 130C87.7516 129.315 87.4516 129.251 86 129z"/>
<path style="fill:#b9dbd2; stroke:none;" d="M89 129C90.2484 129.685 90.5484 129.749 92 130C90.7516 129.315 90.4516 129.251 89 129z"/>
<path style="fill:#d2e7e1; stroke:none;" d="M162 129C163.248 129.685 163.548 129.749 165 130C163.752 129.315 163.452 129.251 162 129z"/>
<path style="fill:#93cbbb; stroke:none;" d="M165.667 129.333C165.222 129.778 166.278 129.722 166.333 129.667C166.778 129.222 165.722 129.278 165.667 129.333z"/>
<path style="fill:#7ec4b1; stroke:none;" d="M90 130C92.6127 131.098 95.1645 130.993 98 131C95.3873 129.902 92.8355 130.007 90 130z"/>
<path style="fill:#b8dcd1; stroke:none;" d="M98 130C99.2484 130.685 99.5484 130.749 101 131C99.7517 130.315 99.4516 130.251 98 130z"/>
<path style="fill:#cae4dd; stroke:none;" d="M153 130C154.248 130.685 154.548 130.749 156 131C154.752 130.315 154.452 130.251 153 130z"/>
<path style="fill:#8cccba; stroke:none;" d="M156 130C158.613 131.098 161.165 130.993 164 131C161.387 129.902 158.836 130.007 156 130z"/>
<path style="fill:#91ccbc; stroke:none;" d="M242 130L243 131L242 130z"/>
<path style="fill:#8fcaba; stroke:none;" d="M101 131C103.052 131.874 104.747 131.953 107 132C104.948 131.126 103.253 131.047 101 131z"/>
<path style="fill:#acd9cd; stroke:none;" d="M107 131C108.769 131.779 110.036 131.912 112 132C110.231 131.221 108.964 131.088 107 131z"/>
<path style="fill:#a8d6ca; stroke:none;" d="M144 131C146.613 132.098 149.165 131.993 152 132C149.387 130.902 146.836 131.007 144 131z"/>
<path style="fill:#74bda8; stroke:none;" d="M152 131C153.248 131.685 153.548 131.749 155 132C153.752 131.315 153.452 131.251 152 131z"/>
<path style="fill:#2ea081; stroke:none;" d="M158 131C159.506 131.683 160.315 131.826 162 132C160.494 131.317 159.685 131.174 158 131z"/>
<path style="fill:#daece8; stroke:none;" d="M242 131L243 132L242 131z"/>
<path style="fill:#39a588; stroke:none;" d="M102 132C104.613 133.098 107.165 132.993 110 133L110 204C112.701 197.564 111 187.951 111 181L111 132L102 132z"/>
<path style="fill:#79c1ae; stroke:none;" d="M111 132L111 204C113.085 199.031 112 192.35 112 187L112 151C112 145.113 113.292 137.462 111 132z"/>
<path style="fill:#eff6f3; stroke:none;" d="M112 132L112 203C114.085 198.031 113 191.35 113 186L113 151C113 145.113 114.292 137.462 112 132z"/>
<path style="fill:#85c7b5; stroke:none;" d="M144 132L144 204C146.292 198.538 145 190.887 145 185L145 149C145 143.65 146.085 136.969 144 132z"/>
<path style="fill:#36a486; stroke:none;" d="M145 132L145 204C147.599 197.806 146 188.686 146 182L146 133L153 133C150.387 131.902 147.835 132.007 145 132z"/>
<path style="fill:#d7ece6; stroke:none;" d="M241 132L242 133L241 132z"/>
<path style="fill:#68b8a2; stroke:none;" d="M16 133C17.2995 135.763 18.5531 137.164 21 139C19.7005 136.237 18.4469 134.836 16 133z"/>
<path style="fill:#c9e5de; stroke:none;" d="M239 134L240 135L239 134z"/>
<path style="fill:#7ec2ac; stroke:none;" d="M238.333 135.667C238.278 135.722 238.222 136.778 238.667 136.333C238.722 136.278 238.778 135.222 238.333 135.667z"/>
<path style="fill:#d2e9e1; stroke:none;" d="M237 136L238 137L237 136z"/>
<path style="fill:#7ec1ad; stroke:none;" d="M236.667 137.333C236.222 137.778 237.278 137.722 237.333 137.667C237.778 137.222 236.722 137.278 236.667 137.333z"/>
<path style="fill:#4fae94; stroke:none;" d="M96 138C99.4324 139.44 103.3 139 107 139L107 189C107 193.64 104.415 203.782 107.039 207.697C108.929 210.517 113.063 209.994 116 210L140 210C143.263 209.993 147.834 210.525 149.371 206.867C151.342 202.178 149 193.138 149 188L149 139L160 139C156.041 137.339 151.263 138 147 138L147 184C147 188.741 148.855 197.816 146.022 201.861C144.15 204.535 141.007 204.89 138 204.985C130.862 205.209 123.098 205.69 116.001 204.891C113.263 204.583 110.73 203.605 109.603 200.891C107.471 195.753 109 187.5 109 182L109 138L96 138z"/>
<path style="fill:#88c6b6; stroke:none;" d="M235 138L232 142C234.144 140.869 235.099 140.432 235 138z"/>
<path style="fill:#69b7a3; stroke:none;" d="M22 140C22.6836 141.58 22.8048 141.777 24 143C23.3164 141.42 23.1952 141.223 22 140z"/>
<path style="fill:#84c4b3; stroke:none;" d="M24 142C25.7902 146.228 28.3098 149.282 32 152C30.2098 147.772 27.6902 144.718 24 142z"/>
<path style="fill:#a2d0c5; stroke:none;" d="M230 145C231.457 143.897 231.897 143.457 233 142C230.876 142.899 230.899 142.876 230 145z"/>
<path style="fill:#afd8cb; stroke:none;" d="M229 145L230 146L229 145z"/>
<path style="fill:#cbe5de; stroke:none;" d="M228 146C225.87 148.279 224.299 150.181 223 153C225.643 151.08 228.076 149.392 228 146z"/>
<path style="fill:#9fd2c5; stroke:none;" d="M32 151C32.6836 152.58 32.8048 152.777 34 154C33.3164 152.42 33.1952 152.223 32 151z"/>
<path style="fill:#8bcab8; stroke:none;" d="M222 152L223 153L222 152z"/>
<path style="fill:#dfeeea; stroke:none;" d="M222 153L223 154L222 153z"/>
<path style="fill:#dbede7; stroke:none;" d="M221 154L222 155L221 154z"/>
<path style="fill:#d3e9e3; stroke:none;" d="M220.333 155.667C220.278 155.722 220.222 156.778 220.667 156.333C220.722 156.278 220.778 155.222 220.333 155.667z"/>
<path style="fill:#abd8cc; stroke:none;" d="M36 156L36 158L38 158C37.455 156.365 37.6352 156.545 36 156z"/>
<path style="fill:#9ed1c1; stroke:none;" d="M219 156L218 158L220 158C220 156.147 220.3 156.65 219 156z"/>
<path style="fill:#bfe0d8; stroke:none;" d="M217 158L218 159L217 158z"/>
<path style="fill:#8ac8b9; stroke:none;" d="M216 159L217 160L216 159z"/>
<path style="fill:#88c6b6; stroke:none;" d="M42 162L43 163L42 162z"/>
<path style="fill:#94ccbc; stroke:none;" d="M213 162C211.651 163.768 210.878 164.982 210 167C212.015 165.356 213.098 164.587 213 162z"/>
<path style="fill:#79bfac; stroke:none;" d="M43 163C44.4798 166.166 46.1684 167.951 49 170C47.5202 166.834 45.8316 165.049 43 163z"/>
<path style="fill:#a4d1c4; stroke:none;" d="M209 167L210 168L209 167z"/>
<path style="fill:#acd5ca; stroke:none;" d="M208 168L209 169L208 168z"/>
<path style="fill:#b0d8cb; stroke:none;" d="M207 169L208 170L207 169z"/>
<path style="fill:#a9d4c8; stroke:none;" d="M49 170L50 171L49 170z"/>
<path style="fill:#afd7cb; stroke:none;" d="M206 170L207 171L206 170z"/>
<path style="fill:#abd4c8; stroke:none;" d="M50 171L51 172L50 171z"/>
<path style="fill:#c0ded5; stroke:none;" d="M205 171C203.652 172.768 202.878 173.983 202 176C204.015 174.356 205.098 173.587 205 171z"/>
<path style="fill:#a4d2c4; stroke:none;" d="M51 172C52.2995 174.763 53.5531 176.164 56 178C54.7005 175.237 53.4469 173.836 51 172z"/>
<path style="fill:#89c8b6; stroke:none;" d="M201 175L202 176L201 175z"/>
<path style="fill:#d6e9e2; stroke:none;" d="M201 176L202 177L201 176z"/>
<path style="fill:#d4e8e0; stroke:none;" d="M200 177L199 179L201 179C201 177.147 201.3 177.65 200 177z"/>
<path style="fill:#6abba6; stroke:none;" d="M197 179C196.014 180.479 196 180.203 196 182C197.289 180.557 197.401 180.766 197 179z"/>
<path style="fill:#d8eae5; stroke:none;" d="M198 179L199 180L198 179z"/>
<path style="fill:#78c1ae; stroke:none;" d="M194 183C192.242 185.012 191.084 186.581 190 189C192.348 187.227 194.084 185.999 194 183z"/>
<path style="fill:#75bdab; stroke:none;" d="M64 186C66.0282 190.428 69.1387 194.047 73 197C71.0369 192.364 68.0759 188.932 64 186z"/>
<path style="fill:#a0d2c5; stroke:none;" d="M189 189L190 190L189 189z"/>
<path style="fill:#9ed0c3; stroke:none;" d="M188 190L189 191L188 190z"/>
<path style="fill:#bcddd5; stroke:none;" d="M187 191C184.87 193.279 183.299 195.181 182 198C184.643 196.08 187.076 194.392 187 191z"/>
<path style="fill:#98ccbf; stroke:none;" d="M73 196C74.1036 198.357 74.9564 199.376 77 201C75.8965 198.643 75.0436 197.624 73 196z"/>
<path style="fill:#85c5b2; stroke:none;" d="M181 197L182 198L181 197z"/>
<path style="fill:#cae3db; stroke:none;" d="M181 198L182 199L181 198z"/>
<path style="fill:#e2edea; stroke:none;" d="M180 199L176 204C178.517 202.753 180.083 201.895 180 199z"/>
<path style="fill:#5ab29a; stroke:none;" d="M76 201L77 202L76 201z"/>
<path style="fill:#c6e1d9; stroke:none;" d="M77 201L78 202L77 201z"/>
<path style="fill:#89c6b4; stroke:none;" d="M77 202C78.2228 203.195 78.42 203.316 80 204C78.7772 202.805 78.58 202.684 77 202z"/>
<path style="fill:#b0dbcf; stroke:none;" d="M112 203C115.699 204.552 120.017 204 124 204L144 204C140.301 202.448 135.983 203 132 203L112 203z"/>
<path style="fill:#33a385; stroke:none;" d="M112 204C115.699 205.552 120.017 205 124 205L144 205C140.301 203.448 135.983 204 132 204L112 204z"/>
<path style="fill:#afd8cd; stroke:none;" d="M175 204L176 205L175 204z"/>
<path style="fill:#95cdbe; stroke:none;" d="M174 205L175 206L174 205z"/>
<path style="fill:#86c7b5; stroke:none;" d="M82 206L83 207L82 206z"/>
<path style="fill:#8ac9b8; stroke:none;" d="M172 207C171.043 208.517 170.613 209.339 170 211C171.63 209.485 172.163 209.145 172 207z"/>
<path style="fill:#72bda9; stroke:none;" d="M84 208C85.2995 210.763 86.5531 212.164 89 214C87.7005 211.237 86.4469 209.836 84 208z"/>
<path style="fill:#9cd0c2; stroke:none;" d="M169 211L170 212L169 211z"/>
<path style="fill:#a4d4c7; stroke:none;" d="M168 212L169 213L168 212z"/>
<path style="fill:#aed9cd; stroke:none;" d="M167 213L168 214L167 213z"/>
<path style="fill:#96cebf; stroke:none;" d="M89 214L90 215L89 214z"/>
<path style="fill:#a3d3c6; stroke:none;" d="M166 214L167 215L166 214z"/>
<path style="fill:#99cebf; stroke:none;" d="M90 215L91 216L90 215z"/>
<path style="fill:#9ed0c2; stroke:none;" d="M165 215L166 216L165 215z"/>
<path style="fill:#a0d1c3; stroke:none;" d="M91 216L92 217L91 216z"/>
<path style="fill:#b8dcd2; stroke:none;" d="M164 216C163.043 217.517 162.613 218.339 162 220C163.63 218.485 164.163 218.145 164 216z"/>
<path style="fill:#99cdbe; stroke:none;" d="M92 217C93.2995 219.763 94.5531 221.164 97 223C95.7005 220.237 94.4469 218.836 92 217z"/>
<path style="fill:#8bc7b5; stroke:none;" d="M161 219L162 220L161 219z"/>
<path style="fill:#c8e2da; stroke:none;" d="M161 220L162 221L161 220z"/>
<path style="fill:#c2e0d9; stroke:none;" d="M160 221L157 225C159.143 223.869 160.099 223.432 160 221z"/>
<path style="fill:#52b097; stroke:none;" d="M96 223L97 224L96 223z"/>
<path style="fill:#c2e1d8; stroke:none;" d="M97 223L98 224L97 223z"/>
<path style="fill:#65b8a2; stroke:none;" d="M97 224L98 225L97 224z"/>
<path style="fill:#cae4dc; stroke:none;" d="M98 224L99 225L98 224z"/>
<path style="fill:#75bfac; stroke:none;" d="M98 225L99 226L98 225z"/>
<path style="fill:#bcdcd3; stroke:none;" d="M99 225C99.8993 227.124 99.8764 227.101 102 228C100.897 226.543 100.457 226.103 99 225z"/>
<path style="fill:#e0eeeb; stroke:none;" d="M154 229C155.753 227.67 156.67 226.753 158 225C155.751 226.154 155.154 226.751 154 229z"/>
<path style="fill:#75bdab; stroke:none;" d="M101 228C103.291 231.245 105.755 233.709 109 236C107.186 232.122 104.878 229.814 101 228z"/>
<path style="fill:#97cebe; stroke:none;" d="M153 228L154 229L153 228z"/>
<path style="fill:#95cabe; stroke:none;" d="M152 229C151.043 230.517 150.613 231.339 150 233C151.63 231.485 152.163 231.145 152 229z"/>
<path style="fill:#ebf1f1; stroke:none;" d="M153 229L154 230L153 229z"/>
<path style="fill:#a1d2c6; stroke:none;" d="M149 233L150 234L149 233z"/>
<path style="fill:#9bd1c2; stroke:none;" d="M148 234L149 235L148 234z"/>
<path style="fill:#9ad0c1; stroke:none;" d="M147 235L148 236L147 235z"/>
<path style="fill:#b9ded5; stroke:none;" d="M146 236C144.242 238.012 143.084 239.581 142 242C144.348 240.227 146.084 238.999 146 236z"/>
<path style="fill:#71bca9; stroke:none;" d="M110 237C110.936 238.949 111.392 239.55 113 241C112.064 239.051 111.608 238.45 110 237z"/>
<path style="fill:#8ac9b9; stroke:none;" d="M113 240C114.104 242.357 114.956 243.376 117 245C115.896 242.643 115.044 241.624 113 240z"/>
<path style="fill:#c4e3db; stroke:none;" d="M141 242L142 243L141 242z"/>
<path style="fill:#cfe7e2; stroke:none;" d="M140 243L141 244L140 243z"/>
<path style="fill:#cde7df; stroke:none;" d="M139 244C137.242 246.012 136.084 247.581 135 250C137.348 248.227 139.084 246.999 139 244z"/>
<path style="fill:#bcded4; stroke:none;" d="M117 245L118 246L117 245z"/>
<path style="fill:#5cb49b; stroke:none;" d="M117 246L118 247L117 246z"/>
<path style="fill:#a2d3c5; stroke:none;" d="M118 246C119.154 248.249 119.751 248.846 122 250C120.67 248.247 119.753 247.33 118 246z"/>
<path style="fill:#a1d1c3; stroke:none;" d="M134 249L135 250L134 249z"/>
<path style="fill:#97cbbd; stroke:none;" d="M133 250L134 251L133 250z"/>
<path style="fill:#90c8b9; stroke:none;" d="M122 251C123.223 252.195 123.42 252.316 125 253C123.777 251.805 123.58 251.684 122 251z"/>
<path style="fill:#85c4b3; stroke:none;" d="M132 251L133 252L132 251z"/>
<path style="fill:#dfede8; stroke:none;" d="M133 251L134 252L133 251z"/>
<path style="fill:#cde5df; stroke:none;" d="M132 252L133 253L132 252z"/>
<path style="fill:#6fbca7; stroke:none;" d="M125 253C126.446 255.283 127.311 255.582 130 256L125 253z"/>
<path style="fill:#ddede7; stroke:none;" d="M131 253L132 254L131 253z"/>
<path style="fill:#cce5de; stroke:none;" d="M130 254L131 255L130 254z"/>
</svg>
