<svg xmlns="http://www.w3.org/2000/svg" width="32" height="32" viewBox="0 0 32 32"><path style="fill:#000000; stroke:none;" d="M0 0v14c0.998 -1.833 1.67 -3.932 2.433 -5.875C3.506 5.392 4.747 2.712 5.875 0z"/><path style="fill:#71bda7; stroke:none;" d="M5.875 0c0.495 0.208 1.093 0.125 1.625 0.125h13.75c1.63 0 3.64 -0.338 5.125 0.375 -0.356 -0.58 -0.875 -0.5 -1.5 -0.5H5.875"/><path style="fill:#000000; stroke:none;" d="M26.125 0c1.284 3.083 2.604 6.155 3.858 9.25 0.387 0.955 0.761 1.937 1.181 2.875 0.262 0.585 0.598 1.113 0.711 1.75 0.194 -0.462 0.125 -1.002 0.125 -1.5V0z"/><path style="fill:#a7d4c8; stroke:none;" d="m5.75 0.125 -0.125 0.375c0.221 -0.122 0.244 -0.153 0.125 -0.375"/><path style="fill:#4fae94; stroke:none;" d="M5.875 0.125c-0.094 0.282 -0.168 0.414 -0.375 0.625 0.021 0.818 -0.614 1.736 -0.913 2.5 -0.137 0.348 -0.267 0.804 -0.587 1 0.001 0.613 -0.197 1.184 -0.625 1.625 0.021 0.844 -0.616 1.852 -0.951 2.625 -0.135 0.311 -0.264 0.7 -0.549 0.875 0.001 0.537 -0.14 0.975 -0.5 1.375 -0.05 0.81 -0.608 1.744 -0.914 2.5 -0.135 0.334 -0.402 0.751 -0.339 1.125 0.06 0.354 0.381 0.62 0.607 0.875 0.628 0.711 1.636 1.449 1.896 2.375 0.764 0.214 1.503 1.272 1.75 2 0.37 0.114 0.593 0.416 0.88 0.678 0.811 0.74 1.42 1.605 2.115 2.444 0.33 0.399 0.77 0.641 1.12 1.014 1.61 1.713 3.16 3.496 4.744 5.237 0.559 0.615 1.104 1.246 1.651 1.872 0.264 0.301 0.592 0.737 0.99 0.863 0.485 0.153 0.846 -0.434 1.129 -0.733 0.97 -1.02 1.905 -2.081 2.849 -3.125 3.016 -3.335 6.083 -6.628 9.057 -10 0.978 -1.109 2.916 -2.456 3.089 -4l-0.25 0.125 0.125 -0.625c-0.149 0.075 -0.122 0.058 -0.25 0.25 -0.197 -0.734 -0.618 -1.39 -0.825 -2.125 -0.098 -0.347 -0.046 -0.696 -0.425 -0.75l0.125 -0.375c-0.235 -0.265 -0.267 -0.395 -0.25 -0.75 -0.272 -0.091 -0.223 -0.055 -0.125 -0.25h-0.25l0.125 -0.25c-0.242 -0.291 -0.257 -0.496 -0.25 -0.875 -0.149 0.075 -0.122 0.058 -0.25 0.25 -0.254 -0.881 -0.831 -1.694 -0.875 -2.625 -0.272 -0.091 -0.223 -0.055 -0.125 -0.25 -0.335 -0.348 -0.417 -0.646 -0.375 -1.125 -0.272 -0.091 -0.223 -0.055 -0.125 -0.25h-0.25l0.125 -0.25c-0.467 -0.466 -0.54 -1.036 -0.785 -1.625 -0.232 -0.559 -0.559 -1.007 -0.59 -1.625 -0.272 -0.091 -0.223 -0.055 -0.125 -0.25 -0.671 -0.453 -1.341 -0.375 -2.125 -0.375H5.875"/><path style="fill:#7fc3b0; stroke:none;" d="m5.625 0.5 -0.125 0.25h0.25c0 -0.232 0.037 -0.169 -0.125 -0.25"/><path style="fill:#50af95; stroke:none;" d="M6.5 0.5c-0.071 0.363 -0.078 0.638 0 1h-0.25v0.75c-0.445 0.124 -0.536 0.437 -0.5 0.875h-0.5c0.049 0.244 0.079 0.535 -0.125 0.875l-0.125 -0.125c0.083 0.174 0.12 0.227 0.25 0.375 -0.135 0.18 -0.121 0.146 -0.125 0.375h-0.25v0.75l-0.125 0.125c-0.21 -0.028 -0.289 -0.027 -0.5 0l0.125 0.875 -0.25 -0.125c0.083 0.174 0.12 0.227 0.25 0.375 -0.135 0.18 -0.121 0.146 -0.125 0.375h-0.25l0.125 0.25h-0.5l0.125 0.625 -0.125 0.125c-0.291 -0.006 -0.251 -0.025 -0.375 0.25l0.375 -0.125c-0.247 0.438 -0.523 0.868 -0.5 1.375l-0.375 -0.125c0.083 0.174 0.12 0.227 0.25 0.375 -0.135 0.18 -0.121 0.146 -0.125 0.375h-0.25l0.125 0.25c-0.456 0 -0.341 0.196 -0.625 0.125v0.375l0.25 -0.125c0 0.407 0.018 0.442 -0.25 0.375 0.083 0.174 0.12 0.227 0.25 0.375 -0.135 0.18 -0.121 0.146 -0.125 0.375h-0.25l0.125 0.25c-0.371 0.108 -0.411 0.249 -0.375 0.625 -0.211 -0.027 -0.289 -0.028 -0.5 0l0.375 0.25 -0.625 0.125c0.237 0.38 0.081 0.815 0 1.25h0.25l-0.125 0.25 0.625 0.25 -0.125 0.25c0.456 0.249 0.616 0.502 0.75 1 0.149 -0.075 0.122 -0.058 0.25 -0.25 0.249 0.53 0.828 0.834 1 1.375 0.52 0.305 0.669 0.521 0.625 1.125 0.406 0.116 0.741 0.333 1.125 0.5l-0.125 0.25c0.623 0.399 1.113 1.065 1.75 1.375 0.031 0.32 0.136 0.571 0.25 0.875 0.149 -0.075 0.122 -0.058 0.25 -0.25 0.126 0.296 0.295 0.565 0.375 0.875l0.5 0.125c0.106 0.567 0.705 0.716 0.875 1.25h0.25c0.104 0.598 0.585 0.896 1.125 1.125 -0.136 0.34 -0.136 0.114 0.125 0.375l-0.125 0.125c0.347 0.201 0.626 0.361 0.75 0.75 0.371 0.287 0.58 0.562 0.75 1 0.149 -0.075 0.122 -0.058 0.25 -0.25 0.117 0.244 0.174 0.319 0.375 0.5 -0.13 0.148 -0.167 0.201 -0.25 0.375 0.361 0.071 0.66 0.234 1 0.375 0.082 0.476 0.479 0.686 0.625 1.125 0.513 0.381 0.907 0.86 1.5 1.125 0.082 0.448 0.311 0.551 0.75 0.625l0.25 -0.375 -0.25 -0.125c0.549 -0.408 1.37 -0.926 1.5 -1.625 0.694 -0.066 1.908 -0.652 1.375 -1.5 0.201 -0.181 0.258 -0.256 0.375 -0.5l0.125 0.25c0.344 -0.453 0.9 -0.952 1 -1.5l0.625 -0.25v-0.5c0.54 -0.229 1.021 -0.527 1.125 -1.125 0.284 -0.153 0.324 -0.186 0.375 -0.5l0.75 -0.125c0.109 -0.283 0.109 -0.344 0 -0.625 0.736 -0.207 1.294 -0.866 1.375 -1.625 0.434 -0.205 0.668 -0.398 0.75 -0.875 0.381 -0.103 0.666 -0.289 1 -0.5l-0.125 -0.25c0.383 -0.163 0.724 -0.38 1.125 -0.5l0.125 -1c0.4 -0.115 0.551 -0.214 0.625 -0.625 0.438 -0.206 0.669 -0.437 0.875 -0.875 0.128 0.192 0.101 0.175 0.25 0.25 0.134 -0.498 0.294 -0.751 0.75 -1l-0.125 -0.25 0.625 -0.25c-0.026 -0.208 -0.062 -0.193 0.125 -0.25 -0.079 -0.486 -0.171 -0.902 0 -1.375 -0.272 -0.091 -0.223 -0.055 -0.125 -0.25 -0.231 -0.025 -0.394 -0.025 -0.625 0 0.036 -0.376 -0.004 -0.517 -0.375 -0.625 0.042 -0.209 0.067 -0.164 -0.125 -0.25 -0.004 -0.229 0.01 -0.195 -0.125 -0.375 0.13 -0.148 0.167 -0.201 0.25 -0.375 -0.352 0.07 -0.333 -0.029 -0.125 -0.375l0.125 0.125v-0.375l-0.25 0.125c-0.122 -0.223 -0.114 -0.199 -0.375 -0.25 0.042 -0.209 0.067 -0.164 -0.125 -0.25 -0.004 -0.229 0.01 -0.195 -0.125 -0.375 0.174 -0.176 0.259 -0.284 0.375 -0.5h-0.25c0.233 -0.465 0.049 -0.576 -0.25 -0.875l0.125 -0.125h-0.25l0.125 -0.25c-0.211 -0.027 -0.289 -0.028 -0.5 0l-0.125 -0.125 0.125 -0.625h-0.5c0.042 -0.209 0.067 -0.164 -0.125 -0.25 -0.004 -0.229 0.01 -0.195 -0.125 -0.375 0.13 -0.148 0.167 -0.201 0.25 -0.375l-0.25 0.125 0.125 -0.875c-0.211 -0.027 -0.289 -0.028 -0.5 0l-0.125 -0.125 0.125 -0.625c-0.185 -0.123 -0.15 -0.125 -0.375 -0.125 -0.004 -0.229 0.01 -0.195 -0.125 -0.375 0.13 -0.148 0.167 -0.201 0.25 -0.375 -0.372 0 -0.296 -0.438 -0.25 -0.75h-0.5c0.035 -0.446 -0.044 -0.753 -0.5 -0.875l0.125 -0.625c-0.185 -0.123 -0.15 -0.125 -0.375 -0.125 0.078 -0.362 0.071 -0.637 0 -1 -0.149 0.075 -0.122 0.058 -0.25 0.25 -0.304 -0.348 -0.81 -0.25 -1.25 -0.25H8.125c-0.54 0 -1.046 -0.068 -1.5 0.25 0 -0.232 0.037 -0.169 -0.125 -0.25"/><path style="fill:#74bca8; stroke:none;" d="M26.333 0.667c-0.056 0.056 0.076 0.049 0.083 0.042 0.056 -0.056 -0.076 -0.049 -0.083 -0.042"/><path style="fill:#6db9a4; stroke:none;" d="M5.375 0.875v0.5c0.135 -0.182 0.179 -0.281 0.25 -0.5z"/><path style="fill:#73bda8; stroke:none;" d="M26.375 0.875c0.097 0.267 0.141 0.346 0.375 0.5 -0.097 -0.267 -0.141 -0.346 -0.375 -0.5"/><path style="fill:#93cdbd; stroke:none;" d="M5.292 1.458c-0.007 0.007 -0.014 0.139 0.042 0.083 0.007 -0.007 0.014 -0.139 -0.042 -0.083"/><path style="fill:#94cdbe; stroke:none;" d="M26.667 1.458c-0.007 0.007 -0.014 0.139 0.042 0.083 0.007 -0.007 0.014 -0.139 -0.042 -0.083"/><path style="fill:#98cfc0; stroke:none;" d="M5.167 1.708c-0.007 0.007 -0.014 0.139 0.042 0.083 0.007 -0.007 0.014 -0.139 -0.042 -0.083"/><path style="fill:#90cbbb; stroke:none;" d="M26.792 1.708c-0.007 0.007 -0.014 0.139 0.042 0.083 0.007 -0.007 0.014 -0.139 -0.042 -0.083"/><path style="fill:#a6d4c7; stroke:none;" d="M5.042 1.958c-0.007 0.007 -0.014 0.139 0.042 0.083 0.007 -0.007 0.014 -0.139 -0.042 -0.083"/><path style="fill:#92ccbc; stroke:none;" d="M26.917 1.958c-0.007 0.007 -0.014 0.139 0.042 0.083 0.007 -0.007 0.014 -0.139 -0.042 -0.083"/><path style="fill:#cde3da; stroke:none;" d="M4.917 2.208c-0.007 0.007 -0.014 0.139 0.042 0.083 0.007 -0.007 0.014 -0.139 -0.042 -0.083"/><path style="fill:#abd4c6; stroke:none;" d="M27.042 2.208c-0.007 0.007 -0.014 0.139 0.042 0.083 0.007 -0.007 0.014 -0.139 -0.042 -0.083"/><path style="fill:#a5d1c4; stroke:none;" d="M4.75 2.5c0.004 0.229 -0.01 0.195 0.125 0.375 -0.031 -0.181 -0.039 -0.219 -0.125 -0.375"/><path style="fill:#a1d1c3; stroke:none;" d="m27.125 2.625 0.25 0.75c0.122 -0.35 0.05 -0.539 -0.25 -0.75"/><path style="fill:#beded6; stroke:none;" d="M4.625 2.75c-0.07 0.225 -0.103 0.39 -0.125 0.625 0.142 -0.237 0.184 -0.357 0.125 -0.625"/><path style="fill:#71bca8; stroke:none;" d="M27.5 3.125c-0.022 0.331 0.023 0.558 0.125 0.875 0.101 -0.33 0.036 -0.571 -0.125 -0.875"/><path style="fill:#e9f4f1; stroke:none;" d="m4.375 3.25 0.125 0.125z"/><path style="fill:#7cc0ae; stroke:none;" d="M4.375 3.375v0.375c0.087 -0.194 0.087 -0.181 0 -0.375"/><path style="fill:#4fae94; stroke:none;" d="M7.625 3.75c0.087 1.278 0 2.592 0 3.875 0 0.456 -0.124 1.225 0.207 1.597C8.188 9.622 8.896 9.5 9.375 9.5h4v1.375l-2.625 0.125c0.081 0.163 0.018 0.125 0.25 0.125 -1.167 0.431 -2.549 0.29 -3.722 0.663 -0.343 0.109 -1.03 0.4 -1.028 0.712h-0.625c-0.073 0.276 -0.138 0.331 -0.375 0.5 0.057 0.609 0.063 1.267 0 1.875 0.381 0.265 0.719 0.608 1.125 0.834 0.478 0.267 0.932 0.314 1.375 0.666v-0.25c0.486 0.341 1.284 0.441 1.875 0.5l-0.5 0.125c1.263 0.657 3.123 0.375 4.5 0.375v-0.25c-0.58 0 -1.197 -0.182 -1.75 -0.125 0.153 -0.149 0.177 -0.165 0.375 -0.25 -1.398 -0.592 -3.075 -0.483 -4.5 -1.114 -0.539 -0.238 -1.182 -0.482 -1.493 -1.022 -0.495 -0.859 0.738 -1.528 1.368 -1.817C9.455 11.71 11.772 11.411 13.75 11.25V8.875H8.375V4.25h15.25v4.625h-5.375v2.375c1.963 0.101 4.16 0.581 6 1.273 0.589 0.221 1.777 0.804 1.595 1.601 -0.136 0.597 -0.843 0.929 -1.345 1.153 -1.379 0.614 -2.836 0.65 -4.25 1.099 0.156 0.086 0.194 0.094 0.375 0.125 -0.755 0.289 -1.447 0.375 -2.25 0.375v0.25c1.752 0 3.396 -0.093 5.125 -0.375 -0.156 -0.086 -0.194 -0.094 -0.375 -0.125 0.389 -0.166 0.783 -0.251 1.125 -0.5v0.25c0.651 -0.517 2.099 -0.58 2.25 -1.5h0.25c-0.057 -0.609 -0.063 -1.267 0 -1.875h-0.25c-0.116 -0.595 -0.681 -0.687 -1.192 -0.894C24.032 11.586 22.521 11.254 21.125 11.25c0.341 -0.101 0.644 -0.122 1 -0.125 -0.434 -0.182 -0.908 -0.112 -1.375 -0.13C20.038 10.969 19.341 10.875 18.625 10.875V9.5c1.86 0 3.771 -0.128 5.625 0l0.125 -0.125c-0.169 -1.789 -0.131 -3.832 0 -5.625 -1.201 -0.325 -2.637 -0.125 -3.875 -0.125H9.75c-0.702 0 -1.446 -0.072 -2.125 0.125"/><path style="fill:#a2d1c4; stroke:none;" d="M4.292 3.833c-0.007 0.007 -0.014 0.139 0.042 0.083 0.007 -0.007 0.014 -0.139 -0.042 -0.083"/><path style="fill:#c8e3db; stroke:none;" d="m4.125 4.125 0.125 0.125z"/><path style="fill:#c0dfd7; stroke:none;" d="m27.75 4.125 0.125 0.125z"/><path style="fill:#7bbfad; stroke:none;" d="M8.375 4.25c0.495 0.208 1.093 0.125 1.625 0.125h13.625c-0.495 -0.208 -1.093 -0.125 -1.625 -0.125H8.375"/><path style="fill:#deede9; stroke:none;" d="m4 4.375 0.125 0.125zm4.375 0.25c1.636 -0.39 3.572 -0.125 5.25 -0.125h10c-0.985 -0.413 -2.558 -0.125 -3.625 -0.125H9.5c-0.415 0 -0.841 -0.075 -1.125 0.25"/><path style="fill:#41a88c; stroke:none;" d="M23.75 4.375v4.25c0.166 -0.396 0.125 -0.823 0.125 -1.25 0 -0.902 0.225 -2.165 -0.125 -3"/><path style="fill:#c5e2da; stroke:none;" d="m27.875 4.375 0.125 0.125z"/><path style="fill:#87c5b2; stroke:none;" d="M3.958 4.542c-0.056 0.056 0.076 0.049 0.083 0.042 0.056 -0.056 -0.076 -0.049 -0.083 -0.042"/><path style="fill:#fefefe; stroke:none;" d="M8.5 4.5v4h4c0.44 0 1.21 -0.14 1.496 0.29C14.395 9.387 14.125 10.799 14.125 11.5c-1.585 0.013 -3.212 0.21 -4.75 0.584 -0.817 0.198 -1.7 0.394 -2.375 0.916 0.739 0.087 1.427 -0.415 2.125 -0.628 1.028 -0.315 2.181 -0.449 3.25 -0.502 0.434 -0.021 1.314 -0.384 1.621 0.05 0.181 0.256 0.128 0.66 0.129 0.955v2h3.875V11.75l2.625 0.125c-0.627 -0.428 -1.867 -0.359 -2.625 -0.375V8.5c-0.351 0.836 -0.125 2.096 -0.125 3 -0.264 -0.894 -0.125 -1.946 -0.125 -2.875 -0.36 0.859 -0.031 1.956 -0.25 2.875 0.692 0.733 0.375 2.293 0.375 3.25 -0.824 -0.577 -2.514 -0.25 -3.5 -0.25 0.24 -0.589 0.106 -1.243 0.13 -1.875C14.56 11.127 14.5 9.631 14.5 8.125H9.125c0.643 -0.19 1.333 -0.125 2 -0.125h3.375c-0.527 -0.221 -1.183 -0.125 -1.75 -0.125H9.125V5h13.75v2.875h-5.375c0.527 0.221 1.183 0.125 1.75 0.125h3.625c-1.49 0.441 -3.447 0.125 -5 0.125v0.25h5.5V4.625h-9.625c-1.717 0 -3.559 0.189 -5.25 -0.125"/><path style="fill:#ffffff; stroke:none;" d="M8.75 4.5c0.495 0.208 1.093 0.125 1.625 0.125h13v3.75h-5.5v-0.25h5c-0.527 -0.221 -1.183 -0.125 -1.75 -0.125h-3.625c0.643 -0.19 1.333 -0.125 2 -0.125h3.375V5H9.125v2.875h5.375c-0.643 0.19 -1.333 0.125 -2 0.125H9.125c0.527 0.221 1.183 0.125 1.75 0.125h3.625c0 1.461 0.038 2.921 0.003 4.38 -0.015 0.66 0.101 1.368 -0.128 1.995 0.931 0 2.617 -0.324 3.375 0.25 0.291 -0.693 0.393 -2.786 -0.25 -3.25 0.264 -0.894 0.125 -1.946 0.125 -2.875 0.264 0.894 0.125 1.946 0.125 2.875 0.351 -0.836 0.125 -2.096 0.125 -3h5.625c0 -1.296 -0.176 -2.735 0.125 -4z"/><path style="fill:#e1efec; stroke:none;" d="m3.875 4.625 0.125 0.125z"/><path style="fill:#d3e8e2; stroke:none;" d="M8.375 4.625v4c0.166 -0.396 0.125 -0.823 0.125 -1.25 0 -0.836 0.2 -1.976 -0.125 -2.75"/><path style="fill:#eff6f4; stroke:none;" d="M23.5 4.625v3.875h-5.5c0.559 0.234 1.274 0.125 1.875 0.125h3.75V6.125c0 -0.498 0.069 -1.038 -0.125 -1.5"/><path style="fill:#8fcbba; stroke:none;" d="M28 4.625c0.066 0.318 0.11 0.442 0.375 0.625 -0.107 -0.245 -0.204 -0.421 -0.375 -0.625"/><path style="fill:#6fbaa5; stroke:none;" d="M3.917 4.833c-0.007 0.007 -0.014 0.139 0.042 0.083 0.007 -0.007 0.014 -0.139 -0.042 -0.083"/><path style="fill:#a1d4c6; stroke:none;" d="M3.75 4.875v0.375c0.087 -0.194 0.087 -0.181 0 -0.375"/><path style="fill:#e4eee5; stroke:none;" d="m3.625 5.125 0.125 0.125z"/><path style="fill:#99d0c1; stroke:none;" d="m3.625 5.25 0.125 0.125z"/><path style="fill:#72bda9; stroke:none;" d="M28.125 5.25c0.125 0.24 0.135 0.262 0.375 0.375 -0.125 -0.24 -0.135 -0.262 -0.375 -0.375"/><path style="fill:#6dbaa4; stroke:none;" d="m3.625 5.375 -0.25 0.5c0.233 -0.158 0.296 -0.222 0.25 -0.5"/><path style="fill:#6ebba6; stroke:none;" d="M28.458 5.792c-0.056 0.056 0.076 0.049 0.083 0.042 0.056 -0.056 -0.076 -0.049 -0.083 -0.042"/><path style="fill:#87c6b5; stroke:none;" d="M3.25 6v0.5c0.135 -0.182 0.179 -0.281 0.25 -0.5z"/><path style="fill:#74bda8; stroke:none;" d="m28.5 6 0.125 0.5c0.094 -0.256 0.082 -0.325 -0.125 -0.5"/><path style="fill:#52ae92; stroke:none;" d="M28.792 6.333c-0.007 0.007 -0.014 0.139 0.042 0.083 0.007 -0.007 0.014 -0.139 -0.042 -0.083"/><path style="fill:#8fcabb; stroke:none;" d="M3.167 6.583c-0.007 0.007 -0.014 0.139 0.042 0.083 0.007 -0.007 0.014 -0.139 -0.042 -0.083"/><path style="fill:#8dcab9; stroke:none;" d="M28.792 6.583c-0.007 0.007 -0.014 0.139 0.042 0.083 0.007 -0.007 0.014 -0.139 -0.042 -0.083"/><path style="fill:#90ccbc; stroke:none;" d="M3.042 6.833c-0.007 0.007 -0.014 0.139 0.042 0.083 0.007 -0.007 0.014 -0.139 -0.042 -0.083"/><path style="fill:#84c6b5; stroke:none;" d="M28.875 6.75c0.086 0.575 0.246 1.17 0.75 1.5 -0.156 -0.542 -0.39 -1.065 -0.75 -1.5"/><path style="fill:#98cebf; stroke:none;" d="M2.917 7.083c-0.007 0.007 -0.014 0.139 0.042 0.083 0.007 -0.007 0.014 -0.139 -0.042 -0.083"/><path style="fill:#bbddd3; stroke:none;" d="M2.792 7.333c-0.007 0.007 -0.014 0.139 0.042 0.083 0.007 -0.007 0.014 -0.139 -0.042 -0.083"/><path style="fill:#ddece7; stroke:none;" d="M2.667 7.583c-0.007 0.007 -0.014 0.139 0.042 0.083 0.007 -0.007 0.014 -0.139 -0.042 -0.083"/><path style="fill:#6bbba6; stroke:none;" d="M2.792 7.583c-0.007 0.007 -0.014 0.139 0.042 0.083 0.007 -0.007 0.014 -0.139 -0.042 -0.083"/><path style="fill:#8cc7b5; stroke:none;" d="M2.5 7.75c0.068 0.204 0.046 0.182 0.25 0.25v-0.25z"/><path style="fill:#e9f2f1; stroke:none;" d="m2.5 7.875 0.125 0.125z"/><path style="fill:#b8ddd3; stroke:none;" d="m2.375 8 -0.125 0.5c0.234 -0.154 0.278 -0.234 0.375 -0.5z"/><path style="fill:#bbdcd3; stroke:none;" d="M29.542 8.333c-0.007 0.007 -0.014 0.139 0.042 0.083 0.007 -0.007 0.014 -0.139 -0.042 -0.083"/><path style="fill:#7bc1ad; stroke:none;" d="M2.25 8.5v0.375c0.087 -0.194 0.087 -0.181 0 -0.375"/><path style="fill:#eff6f4; stroke:none;" d="M8.5 8.5c0.559 0.234 1.274 0.125 1.875 0.125h3.625c-0.559 -0.234 -1.274 -0.125 -1.875 -0.125z"/><path style="fill:#81c4b3; stroke:none;" d="M8.375 8.625c0.559 0.234 1.274 0.125 1.875 0.125h3.625v2.625c0.325 -0.775 0.125 -1.912 0.125 -2.75z"/><path style="fill:#eff6f3; stroke:none;" d="M14 8.625v2.875c0.285 -0.68 0.285 -2.195 0 -2.875"/><path style="fill:#81c4b3; stroke:none;" d="M18 8.625v2.875h0.875c-0.257 -0.109 -0.468 -0.119 -0.75 -0.125V8.75h5.5c-0.559 -0.234 -1.274 -0.125 -1.875 -0.125z"/><path style="fill:#77bea9; stroke:none;" d="m29.625 8.625 0.125 0.5c0.069 -0.251 0.038 -0.291 -0.125 -0.5"/><path style="fill:#34a385; stroke:none;" d="M8.375 8.75c0.527 0.221 1.183 0.125 1.75 0.125h3.625v2.375h-0.625c0.257 0.109 0.468 0.119 0.75 0.125V8.75zm9.75 0v2.625h0.875c-0.257 -0.109 -0.468 -0.119 -0.75 -0.125V8.875h5.375c-0.559 -0.234 -1.274 -0.125 -1.875 -0.125z"/><path style="fill:#a3d1c3; stroke:none;" d="M2.167 8.958c-0.007 0.007 -0.014 0.139 0.042 0.083 0.007 -0.007 0.014 -0.139 -0.042 -0.083"/><path style="fill:#cce3dd; stroke:none;" d="m2 9.25 0.125 0.125z"/><path style="fill:#bdddd5; stroke:none;" d="m29.875 9.25 0.125 0.125z"/><path style="fill:#deedea; stroke:none;" d="m1.875 9.5 0.125 0.125z"/><path style="fill:#bddfd6; stroke:none;" d="m30 9.5 0.125 0.125z"/><path style="fill:#82c2b0; stroke:none;" d="M1.833 9.667c-0.056 0.056 0.076 0.049 0.083 0.042 0.056 -0.056 -0.076 -0.049 -0.083 -0.042"/><path style="fill:#dfefeb; stroke:none;" d="m1.75 9.75 0.125 0.125z"/><path style="fill:#8bc8b7; stroke:none;" d="M30.125 9.75c0.066 0.318 0.11 0.442 0.375 0.625 -0.107 -0.245 -0.204 -0.421 -0.375 -0.625"/><path style="fill:#6ebba5; stroke:none;" d="M1.792 9.958c-0.007 0.007 -0.014 0.139 0.042 0.083 0.007 -0.007 0.014 -0.139 -0.042 -0.083"/><path style="fill:#d6eae5; stroke:none;" d="m1.625 10 0.125 0.125z"/><path style="fill:#8cc8b8; stroke:none;" d="M1.667 10.208c-0.007 0.007 -0.014 0.139 0.042 0.083 0.007 -0.007 0.014 -0.139 -0.042 -0.083"/><path style="fill:#d9eae4; stroke:none;" d="m1.5 10.25 0.125 0.125z"/><path style="fill:#a0d2c4; stroke:none;" d="M1.542 10.458c-0.007 0.007 -0.014 0.139 0.042 0.083 0.007 -0.007 0.014 -0.139 -0.042 -0.083"/><path style="fill:#e8f0e9; stroke:none;" d="m1.375 10.5 0.125 0.125z"/><path style="fill:#82c4af; stroke:none;" d="M30.375 10.5v0.25c0.204 -0.068 0.182 -0.046 0.25 -0.25z"/><path style="fill:#6fbba5; stroke:none;" d="M1.458 10.667c-0.056 0.056 0.076 0.049 0.083 0.042 0.056 -0.056 -0.076 -0.049 -0.083 -0.042"/><path style="fill:#9bd1c3; stroke:none;" d="M1.25 10.875v0.375c0.127 -0.142 0.164 -0.202 0.25 -0.375z"/><path style="fill:#a2d3c6; stroke:none;" d="M30.667 11.083c-0.007 0.007 -0.014 0.139 0.042 0.083 0.007 -0.007 0.014 -0.139 -0.042 -0.083"/><path style="fill:#5db399; stroke:none;" d="M30.792 11.083c-0.007 0.007 -0.014 0.139 0.042 0.083 0.007 -0.007 0.014 -0.139 -0.042 -0.083"/><path style="fill:#a7d6c9; stroke:none;" d="M1.167 11.333c-0.007 0.007 -0.014 0.139 0.042 0.083 0.007 -0.007 0.014 -0.139 -0.042 -0.083"/><path style="fill:#abd6ca; stroke:none;" d="m30.75 11.25 0.125 0.5c0.049 -0.24 0.018 -0.295 -0.125 -0.5"/><path style="fill:#32a184; stroke:none;" d="M11.5 11.375c0.327 0.137 0.646 0.124 1 0.125 -0.327 -0.137 -0.646 -0.124 -1 -0.125"/><path style="fill:#75bca9; stroke:none;" d="M12.625 11.375c0.221 0.097 0.38 0.114 0.625 0.125 -0.221 -0.097 -0.38 -0.114 -0.625 -0.125"/><path style="fill:#a0d2c5; stroke:none;" d="M13.25 11.375c0.257 0.109 0.468 0.119 0.75 0.125 -0.257 -0.109 -0.468 -0.119 -0.75 -0.125"/><path style="fill:#6fbaa5; stroke:none;" d="M18.875 11.375c0.156 0.086 0.194 0.094 0.375 0.125 -0.156 -0.086 -0.194 -0.094 -0.375 -0.125"/><path style="fill:#b6dbd1; stroke:none;" d="M1.042 11.583c-0.007 0.007 -0.014 0.139 0.042 0.083 0.007 -0.007 0.014 -0.139 -0.042 -0.083"/><path style="fill:#7dc3b1; stroke:none;" d="M11.375 11.5c0.361 0.152 0.734 0.125 1.125 0.125 -0.361 -0.152 -0.734 -0.125 -1.125 -0.125"/><path style="fill:#d6e9e3; stroke:none;" d="M12.5 11.5c0.257 0.109 0.468 0.119 0.75 0.125 -0.257 -0.109 -0.468 -0.119 -0.75 -0.125"/><path style="fill:#c6e3d9; stroke:none;" d="M18.75 11.5c0.188 0.085 0.289 0.103 0.5 0.125 -0.188 -0.085 -0.289 -0.103 -0.5 -0.125"/><path style="fill:#93ccbd; stroke:none;" d="M19.25 11.5c0.221 0.097 0.38 0.114 0.625 0.125 -0.221 -0.097 -0.38 -0.114 -0.625 -0.125"/><path style="fill:#61b59d; stroke:none;" d="M19.875 11.5c0.221 0.097 0.38 0.114 0.625 0.125 -0.221 -0.097 -0.38 -0.114 -0.625 -0.125"/><path style="fill:#8bc9b8; stroke:none;" d="M11 11.625c0.156 0.086 0.194 0.094 0.375 0.125 -0.156 -0.086 -0.194 -0.094 -0.375 -0.125"/><path style="fill:#cbe3dd; stroke:none;" d="M11.458 11.667c-0.056 0.056 0.076 0.049 0.083 0.042 0.056 -0.056 -0.076 -0.049 -0.083 -0.042"/><path style="fill:#e7f2ee; stroke:none;" d="M13.5 11.625c0.188 0.085 0.289 0.103 0.5 0.125 -0.188 -0.085 -0.289 -0.103 -0.5 -0.125"/><path style="fill:#a8d4c6; stroke:none;" d="M20.458 11.667c-0.056 0.056 0.076 0.049 0.083 0.042 0.056 -0.056 -0.076 -0.049 -0.083 -0.042"/><path style="fill:#67b9a3; stroke:none;" d="M20.625 11.625c0.188 0.085 0.289 0.103 0.5 0.125 -0.188 -0.085 -0.289 -0.103 -0.5 -0.125"/><path style="fill:#9ccec0; stroke:none;" d="M10.25 11.75c0.156 0.086 0.194 0.094 0.375 0.125 -0.156 -0.086 -0.194 -0.094 -0.375 -0.125"/><path style="fill:#a3d0c3; stroke:none;" d="M12.875 11.75c0.257 0.109 0.468 0.119 0.75 0.125 -0.257 -0.109 -0.468 -0.119 -0.75 -0.125"/><path style="fill:#79c1ae; stroke:none;" d="M13.625 11.75c0.483 0.869 0.25 2.155 0.25 3.125 0.363 -0.866 0.125 -2.188 0.125 -3.125z"/><path style="fill:#eff6f3; stroke:none;" d="M14 11.75v3.125c0.302 -0.719 0.302 -2.406 0 -3.125"/><path style="fill:#81c5b2; stroke:none;" d="M18 11.75v3.125c0.386 -0.92 -0.246 -2.18 0.375 -3 -0.156 -0.086 -0.194 -0.094 -0.375 -0.125"/><path style="fill:#acd6ca; stroke:none;" d="M18.375 11.75c0.221 0.097 0.38 0.114 0.625 0.125 -0.221 -0.097 -0.38 -0.114 -0.625 -0.125"/><path style="fill:#cde6df; stroke:none;" d="M19 11.75c0.156 0.086 0.194 0.094 0.375 0.125 -0.156 -0.086 -0.194 -0.094 -0.375 -0.125"/><path style="fill:#e9f5f2; stroke:none;" d="M20.375 11.875c0.299 0.092 0.562 0.038 0.875 0 -0.315 -0.124 -0.545 -0.077 -0.875 0"/><path style="fill:#bfded5; stroke:none;" d="M21.25 11.75c0.156 0.086 0.194 0.094 0.375 0.125 -0.156 -0.086 -0.194 -0.094 -0.375 -0.125"/><path style="fill:#72c0aa; stroke:none;" d="M30.875 11.75c0.161 0.587 0.349 1.28 0.875 1.625 -0.172 -0.597 -0.431 -1.186 -0.875 -1.625"/><path style="fill:#7ec5b3; stroke:none;" d="M0.917 11.958c-0.007 0.007 -0.014 0.139 0.042 0.083 0.007 -0.007 0.014 -0.139 -0.042 -0.083"/><path style="fill:#aad5c9; stroke:none;" d="M9.708 11.917c-0.056 0.056 0.076 0.049 0.083 0.042 0.056 -0.056 -0.076 -0.049 -0.083 -0.042"/><path style="fill:#cce6dd; stroke:none;" d="M11.458 11.917c-0.056 0.056 0.076 0.049 0.083 0.042 0.056 -0.056 -0.076 -0.049 -0.083 -0.042"/><path style="fill:#a5d2c5; stroke:none;" d="M11.708 11.917c-0.056 0.056 0.076 0.049 0.083 0.042 0.056 -0.056 -0.076 -0.049 -0.083 -0.042"/><path style="fill:#7bc0ac; stroke:none;" d="M11.958 11.917c-0.056 0.056 0.076 0.049 0.083 0.042 0.056 -0.056 -0.076 -0.049 -0.083 -0.042"/><path style="fill:#4fae94; stroke:none;" d="M18.25 11.875c0 0.753 0.295 2.3 -0.165 2.928 -0.238 0.325 -0.613 0.245 -0.96 0.218 -0.746 -0.059 -1.502 -0.011 -2.25 -0.021 -0.34 -0.005 -0.779 0.012 -0.997 -0.304C13.463 14.093 13.75 12.59 13.75 11.875c-0.832 0 -1.56 0.143 -2.375 0.239 -0.932 0.11 -1.971 0.142 -2.854 0.486 -0.489 0.19 -1.359 0.525 -1.359 1.15 0 0.713 0.93 0.922 1.463 1.083 1.489 0.449 3.062 0.738 4.625 0.776 1.234 0.03 2.505 -0.115 3.75 -0.109 1.747 0.008 3.535 0.124 5.25 -0.377 0.733 -0.214 1.915 -0.283 2.425 -0.922 0.612 -0.767 -0.509 -1.315 -1.085 -1.539C21.993 12.042 19.947 11.875 18.25 11.875"/><path style="fill:#39a588; stroke:none;" d="M13.75 11.875v3c0.294 -0.7 0.294 -2.3 0 -3"/><path style="fill:#37a587; stroke:none;" d="M18.125 11.875v3c0.294 -0.7 0.294 -2.3 0 -3"/><path style="fill:#7ec0ae; stroke:none;" d="M19.833 11.917c-0.056 0.056 0.076 0.049 0.083 0.042 0.056 -0.056 -0.076 -0.049 -0.083 -0.042"/><path style="fill:#aad5c8; stroke:none;" d="M20 11.875c0.156 0.086 0.194 0.094 0.375 0.125 -0.156 -0.086 -0.194 -0.094 -0.375 -0.125"/><path style="fill:#fcfdfd; stroke:none;" d="M20.75 11.875c0.965 0.464 2.13 0.409 3.125 0.88 0.338 0.16 0.814 0.392 0.959 0.767 0.165 0.426 -0.27 0.772 -0.585 0.973 -0.776 0.495 -1.62 0.61 -2.499 0.791 -3.47 0.715 -7.499 0.777 -11 0.182 -1.126 -0.192 -4.14 -0.707 -3.5 -2.343 -0.667 -0.123 -1.311 0.385 -1.049 1.125 0.148 0.417 0.541 0.7 0.924 0.886 1.638 0.797 4.178 1.309 6 1.213 0.803 -0.042 1.574 -0.335 2.375 -0.348 0.572 -0.009 1.183 -0.053 1.75 0.025 0.591 0.082 1.14 0.332 1.75 0.302 1.667 -0.082 3.403 -0.405 5 -0.883 0.596 -0.178 1.443 -0.487 1.746 -1.075 0.374 -0.725 -0.299 -1.23 -0.866 -1.515C23.621 12.222 22.164 11.887 20.75 11.875"/><path style="fill:#e1f1ed; stroke:none;" d="M21.625 11.875c0.188 0.085 0.289 0.103 0.5 0.125 -0.188 -0.085 -0.289 -0.103 -0.5 -0.125"/><path style="fill:#98ccbc; stroke:none;" d="M22.125 11.875c0.156 0.086 0.194 0.094 0.375 0.125 -0.156 -0.086 -0.194 -0.094 -0.375 -0.125"/><path style="fill:#a1d2c5; stroke:none;" d="M9.083 12.042c-0.056 0.056 0.076 0.049 0.083 0.042 0.056 -0.056 -0.076 -0.049 -0.083 -0.042"/><path style="fill:#c7e5dc; stroke:none;" d="M9.25 12c0.156 0.086 0.194 0.094 0.375 0.125 -0.156 -0.086 -0.194 -0.094 -0.375 -0.125"/><path style="fill:#b1d8cd; stroke:none;" d="M10.708 12.042c-0.056 0.056 0.076 0.049 0.083 0.042 0.056 -0.056 -0.076 -0.049 -0.083 -0.042"/><path style="fill:#65b9a2; stroke:none;" d="M10.875 12c0.327 0.137 0.646 0.124 1 0.125 -0.327 -0.137 -0.646 -0.124 -1 -0.125"/><path style="fill:#67b9a4; stroke:none;" d="M20.5 12c0.188 0.085 0.289 0.103 0.5 0.125 -0.188 -0.085 -0.289 -0.103 -0.5 -0.125"/><path style="fill:#a9d5c8; stroke:none;" d="M21 12c0.156 0.086 0.194 0.094 0.375 0.125 -0.156 -0.086 -0.194 -0.094 -0.375 -0.125"/><path style="fill:#cce7df; stroke:none;" d="M22.375 12c0.156 0.086 0.194 0.094 0.375 0.125 -0.156 -0.086 -0.194 -0.094 -0.375 -0.125"/><path style="fill:#8ac6b6; stroke:none;" d="M22.833 12.042c-0.056 0.056 0.076 0.049 0.083 0.042 0.056 -0.056 -0.076 -0.049 -0.083 -0.042"/><path style="fill:#8dc9b8; stroke:none;" d="M0.792 12.208c-0.007 0.007 -0.014 0.139 0.042 0.083 0.007 -0.007 0.014 -0.139 -0.042 -0.083"/><path style="fill:#94cdbd; stroke:none;" d="M8.5 12.125c0.156 0.086 0.194 0.094 0.375 0.125 -0.156 -0.086 -0.194 -0.094 -0.375 -0.125"/><path style="fill:#90cdbd; stroke:none;" d="M9.875 12.125c0.188 0.085 0.289 0.103 0.5 0.125 -0.188 -0.085 -0.289 -0.103 -0.5 -0.125"/><path style="fill:#6ebaa6; stroke:none;" d="M10.375 12.125c0.156 0.086 0.194 0.094 0.375 0.125 -0.156 -0.086 -0.194 -0.094 -0.375 -0.125"/><path style="fill:#8dcbbb; stroke:none;" d="M21.5 12.125c0.156 0.086 0.194 0.094 0.375 0.125 -0.156 -0.086 -0.194 -0.094 -0.375 -0.125"/><path style="fill:#c5e2d9; stroke:none;" d="M21.958 12.167c-0.056 0.056 0.076 0.049 0.083 0.042 0.056 -0.056 -0.076 -0.049 -0.083 -0.042"/><path style="fill:#aad7ca; stroke:none;" d="M23.083 12.167c-0.056 0.056 0.076 0.049 0.083 0.042 0.056 -0.056 -0.076 -0.049 -0.083 -0.042"/><path style="fill:#7fc3b0; stroke:none;" d="M23.333 12.167c-0.056 0.056 0.076 0.049 0.083 0.042 0.056 -0.056 -0.076 -0.049 -0.083 -0.042"/><path style="fill:#72beaa; stroke:none;" d="M8 12.25c0.156 0.086 0.194 0.094 0.375 0.125 -0.156 -0.086 -0.194 -0.094 -0.375 -0.125"/><path style="fill:#dfeee9; stroke:none;" d="M8.458 12.292c-0.056 0.056 0.076 0.049 0.083 0.042 0.056 -0.056 -0.076 -0.049 -0.083 -0.042"/><path style="fill:#bbe0d5; stroke:none;" d="M9.25 12.25c0.156 0.086 0.194 0.094 0.375 0.125 -0.156 -0.086 -0.194 -0.094 -0.375 -0.125"/><path style="fill:#7fc1af; stroke:none;" d="M9.708 12.292c-0.056 0.056 0.076 0.049 0.083 0.042 0.056 -0.056 -0.076 -0.049 -0.083 -0.042"/><path style="fill:#7fc2af; stroke:none;" d="M22.083 12.292c-0.056 0.056 0.076 0.049 0.083 0.042 0.056 -0.056 -0.076 -0.049 -0.083 -0.042"/><path style="fill:#abd9cd; stroke:none;" d="M22.25 12.25c0.156 0.086 0.194 0.094 0.375 0.125 -0.156 -0.086 -0.194 -0.094 -0.375 -0.125"/><path style="fill:#8ecaba; stroke:none;" d="M23.583 12.292c-0.056 0.056 0.076 0.049 0.083 0.042 0.056 -0.056 -0.076 -0.049 -0.083 -0.042"/><path style="fill:#b1d7cb; stroke:none;" d="M0.667 12.458c-0.007 0.007 -0.014 0.139 0.042 0.083 0.007 -0.007 0.014 -0.139 -0.042 -0.083"/><path style="fill:#cbe4dd; stroke:none;" d="M7.958 12.417c-0.056 0.056 0.076 0.049 0.083 0.042 0.056 -0.056 -0.076 -0.049 -0.083 -0.042"/><path style="fill:#cde8e0; stroke:none;" d="M8.75 12.375c0.156 0.086 0.194 0.094 0.375 0.125 -0.156 -0.086 -0.194 -0.094 -0.375 -0.125"/><path style="fill:#98cdbd; stroke:none;" d="M22.708 12.417c-0.056 0.056 0.076 0.049 0.083 0.042 0.056 -0.056 -0.076 -0.049 -0.083 -0.042"/><path style="fill:#cde9e0; stroke:none;" d="M22.875 12.375c0.156 0.086 0.194 0.094 0.375 0.125 -0.156 -0.086 -0.194 -0.094 -0.375 -0.125"/><path style="fill:#d5ebe5; stroke:none;" d="M7.25 12.625c0.226 0.072 0.259 0.058 0.5 0 -0.207 -0.051 -0.28 -0.039 -0.5 0"/><path style="fill:#cfe6df; stroke:none;" d="M23.333 12.542c-0.056 0.056 0.076 0.049 0.083 0.042 0.056 -0.056 -0.076 -0.049 -0.083 -0.042"/><path style="fill:#8cc7b6; stroke:none;" d="m24.375 12.5 0.125 0.125z"/><path style="fill:#d3e6e1; stroke:none;" d="M0.542 12.708c-0.007 0.007 -0.014 0.139 0.042 0.083 0.007 -0.007 0.014 -0.139 -0.042 -0.083"/><path style="fill:#50af95; stroke:none;" d="M18.625 12.75v1.875h0.75c-0.263 0.081 -0.474 0.113 -0.75 0.125 0.456 0.191 0.895 0.069 1.375 0.021 0.884 -0.088 1.76 -0.183 2.625 -0.396 -0.081 -0.163 -0.018 -0.125 -0.25 -0.125l1.625 -0.375c0 -0.225 -0.002 -0.19 -0.125 -0.375 -0.504 0.044 -0.777 -0.227 -1.25 -0.336 -0.358 -0.083 -0.76 -0.039 -1.125 -0.039l0.5 -0.125c-1.054 -0.56 -2.25 -0.273 -3.375 -0.25"/><path style="fill:#d3eae4; stroke:none;" d="M24.375 12.625c0.156 0.086 0.194 0.094 0.375 0.125 -0.156 -0.086 -0.194 -0.094 -0.375 -0.125"/><path style="fill:#d1e8e1; stroke:none;" d="M7.083 12.792c-0.056 0.056 0.076 0.049 0.083 0.042 0.056 -0.056 -0.076 -0.049 -0.083 -0.042"/><path style="fill:#79c1ae; stroke:none;" d="M7.875 12.75c0.156 0.086 0.194 0.094 0.375 0.125 -0.156 -0.086 -0.194 -0.094 -0.375 -0.125"/><path style="fill:#78c2ae; stroke:none;" d="M23.75 12.75c0.156 0.086 0.194 0.094 0.375 0.125 -0.156 -0.086 -0.194 -0.094 -0.375 -0.125"/><path style="fill:#a2d3c6; stroke:none;" d="M24.833 12.792c-0.056 0.056 0.076 0.049 0.083 0.042 0.056 -0.056 -0.076 -0.049 -0.083 -0.042"/><path style="fill:#88c6b4; stroke:none;" d="M0.375 12.875c0.068 0.204 0.046 0.182 0.25 0.25v-0.25z"/><path style="fill:#c7e3da; stroke:none;" d="M6.833 12.917c-0.056 0.056 0.076 0.049 0.083 0.042 0.056 -0.056 -0.076 -0.049 -0.083 -0.042"/><path style="fill:#7bc2af; stroke:none;" d="M7.708 12.917c-0.056 0.056 0.076 0.049 0.083 0.042 0.056 -0.056 -0.076 -0.049 -0.083 -0.042"/><path style="fill:#add9cc; stroke:none;" d="M24.208 12.917c-0.056 0.056 0.076 0.049 0.083 0.042 0.056 -0.056 -0.076 -0.049 -0.083 -0.042"/><path style="fill:#c7e2da; stroke:none;" d="m25 12.875 0.125 0.125z"/><path style="fill:#ddece9; stroke:none;" d="m0.375 13 0.125 0.125z"/><path style="fill:#bcdcd4; stroke:none;" d="m6.625 13 0.125 0.125z"/><path style="fill:#c5e4db; stroke:none;" d="m7.375 13 0.125 0.125z"/><path style="fill:#80c3b0; stroke:none;" d="m7.5 13 0.125 0.125z"/><path style="fill:#86c6b3; stroke:none;" d="m24.375 13 0.125 0.125z"/><path style="fill:#b6dacf; stroke:none;" d="m25.25 13 0.125 0.125z"/><path style="fill:#b0d8cd; stroke:none;" d="m0.25 13.125 -0.125 0.5c0.234 -0.154 0.278 -0.234 0.375 -0.5z"/><path style="fill:#a9d5c8; stroke:none;" d="m7.25 13.125 0.125 0.125z"/><path style="fill:#9acfc1; stroke:none;" d="m7.125 13.25 0.125 0.125z"/><path style="fill:#abd6c9; stroke:none;" d="m24.75 13.25 0.125 0.125z"/><path style="fill:#b5dcd0; stroke:none;" d="m7 13.375 0.125 0.125z"/><path style="fill:#b9dcd2; stroke:none;" d="M31.667 13.458c-0.007 0.007 -0.014 0.139 0.042 0.083 0.007 -0.007 0.014 -0.139 -0.042 -0.083"/><path style="fill:#61b7a0; stroke:none;" d="M7 13.5v0.5c0.089 -0.22 0.089 -0.28 0 -0.5"/><path style="fill:#61b7a2; stroke:none;" d="M24.875 13.5v0.5c0.089 -0.22 0.089 -0.28 0 -0.5"/><path style="fill:#c0e0d7; stroke:none;" d="m25.75 13.5 0.125 0.125z"/><path style="fill:#7cc1ad; stroke:none;" d="M0.125 13.625v0.375c0.087 -0.194 0.087 -0.181 0 -0.375"/><path style="fill:#beddd4; stroke:none;" d="M6 13.75v0.375c0.087 -0.194 0.087 -0.181 0 -0.375"/><path style="fill:#bddcd3; stroke:none;" d="M25.875 13.75v0.375c0.087 -0.194 0.087 -0.181 0 -0.375"/><path style="fill:#85c4b2; stroke:none;" d="M31.792 13.833c-0.007 0.007 -0.014 0.139 0.042 0.083 0.007 -0.007 0.014 -0.139 -0.042 -0.083"/><path style="fill:#a2d1c4; stroke:none;" d="M0.042 14.083c-0.007 0.007 -0.014 0.139 0.042 0.083 0.007 -0.007 0.014 -0.139 -0.042 -0.083"/><path style="fill:#b6dad0; stroke:none;" d="m31.875 14.125 0.125 0.125z"/><path style="fill:#a0d1c3; stroke:none;" d="m7.5 14.375 0.125 0.125z"/><path style="fill:#a5d2c5; stroke:none;" d="m24.375 14.375 0.125 0.125z"/><path style="fill:#9acebf; stroke:none;" d="m0 14.5 0.125 0.125z"/><path style="fill:#86c3b3; stroke:none;" d="m6.25 14.5 0.125 0.125z"/><path style="fill:#a0d0c1; stroke:none;" d="m7.75 14.5 0.125 0.125z"/><path style="fill:#aad3c8; stroke:none;" d="m24.125 14.5 0.125 0.125z"/><path style="fill:#86c3b3; stroke:none;" d="m25.625 14.5 0.125 0.125z"/><path style="fill:#add6ca; stroke:none;" d="m31.875 14.5 0.125 0.125z"/><path style="fill:#000000; stroke:none;" d="M0 14.625v17.375h15.75c-0.453 -0.787 -1.242 -1.438 -1.84 -2.125 -1.412 -1.622 -2.895 -3.187 -4.357 -4.761 -2.024 -2.178 -4.049 -4.388 -6.018 -6.614C2.392 17.206 1.307 15.756 0 14.625"/><path style="fill:#93cabb; stroke:none;" d="m0.125 14.625 0.125 0.125z"/><path style="fill:#85c5b3; stroke:none;" d="m6.375 14.625 0.125 0.125z"/><path style="fill:#bfdfd6; stroke:none;" d="m8 14.625 0.125 0.125z"/><path style="fill:#8bc7b6; stroke:none;" d="m25.5 14.625 0.125 0.125z"/><path style="fill:#a1d2c4; stroke:none;" d="M31.75 14.625c-0.169 0.221 -0.265 0.373 -0.375 0.625 0.252 -0.205 0.387 -0.302 0.375 -0.625"/><path style="fill:#000000; stroke:none;" d="M31.875 14.625c-1.398 1.986 -3.309 3.739 -4.965 5.511 -2.404 2.574 -4.703 5.248 -7.057 7.864 -1.18 1.311 -2.615 2.536 -3.604 4h15.75V16.375c0 -0.567 0.096 -1.223 -0.125 -1.75"/><path style="fill:#86c5b4; stroke:none;" d="M0.25 14.75c0.185 0.396 0.396 0.619 0.75 0.875 -0.185 -0.396 -0.396 -0.619 -0.75 -0.875"/><path style="fill:#acd8cc; stroke:none;" d="M8.25 14.75c0.156 0.086 0.194 0.094 0.375 0.125 -0.156 -0.086 -0.194 -0.094 -0.375 -0.125"/><path style="fill:#a7d5c9; stroke:none;" d="M23.375 14.75c0.156 0.086 0.194 0.094 0.375 0.125 -0.156 -0.086 -0.194 -0.094 -0.375 -0.125"/><path style="fill:#9dd2c3; stroke:none;" d="M8.708 14.917c-0.056 0.056 0.076 0.049 0.083 0.042 0.056 -0.056 -0.076 -0.049 -0.083 -0.042"/><path style="fill:#71bba6; stroke:none;" d="M8.958 14.917c-0.056 0.056 0.076 0.049 0.083 0.042 0.056 -0.056 -0.076 -0.049 -0.083 -0.042"/><path style="fill:#9ed2c5; stroke:none;" d="M14 14.875c0.361 0.152 0.734 0.125 1.125 0.125 -0.361 -0.152 -0.734 -0.125 -1.125 -0.125"/><path style="fill:#c0dfd6; stroke:none;" d="M15.125 14.875c0.684 0.287 1.637 0.125 2.375 0.125 -0.684 -0.287 -1.637 -0.125 -2.375 -0.125"/><path style="fill:#9bd1c2; stroke:none;" d="M17.5 14.875c0.188 0.085 0.289 0.103 0.5 0.125 -0.188 -0.085 -0.289 -0.103 -0.5 -0.125"/><path style="fill:#86c6b5; stroke:none;" d="M22.875 14.875c0.156 0.086 0.194 0.094 0.375 0.125 -0.156 -0.086 -0.194 -0.094 -0.375 -0.125"/><path style="fill:#e0edea; stroke:none;" d="M23.333 14.917c-0.056 0.056 0.076 0.049 0.083 0.042 0.056 -0.056 -0.076 -0.049 -0.083 -0.042"/><path style="fill:#a3d4c7; stroke:none;" d="m25.125 14.875 0.125 0.125z"/><path style="fill:#7bc1ad; stroke:none;" d="m6.875 15 0.125 0.125z"/><path style="fill:#abd6c9; stroke:none;" d="M9.083 15.042c-0.056 0.056 0.076 0.049 0.083 0.042 0.056 -0.056 -0.076 -0.049 -0.083 -0.042"/><path style="fill:#2a9e7f; stroke:none;" d="M17.375 15c0.221 0.097 0.38 0.114 0.625 0.125 -0.221 -0.097 -0.38 -0.114 -0.625 -0.125"/><path style="fill:#67b9a3; stroke:none;" d="M22.25 15c0.156 0.086 0.194 0.094 0.375 0.125 -0.156 -0.086 -0.194 -0.094 -0.375 -0.125"/><path style="fill:#afd7ca; stroke:none;" d="M22.625 15c0.156 0.086 0.194 0.094 0.375 0.125 -0.156 -0.086 -0.194 -0.094 -0.375 -0.125"/><path style="fill:#bee0d7; stroke:none;" d="m24.875 15 0.125 0.125z"/><path style="fill:#7dc1ad; stroke:none;" d="m25 15 0.125 0.125z"/><path style="fill:#9ccebf; stroke:none;" d="M9.708 15.167c-0.056 0.056 0.076 0.049 0.083 0.042 0.056 -0.056 -0.076 -0.049 -0.083 -0.042"/><path style="fill:#c2dfd7; stroke:none;" d="M22.208 15.167c-0.056 0.056 0.076 0.049 0.083 0.042 0.056 -0.056 -0.076 -0.049 -0.083 -0.042"/><path style="fill:#c0dfd6; stroke:none;" d="m24.625 15.125 0.125 0.125z"/><path style="fill:#9ccdbe; stroke:none;" d="m7.5 15.25 0.125 0.125z"/><path style="fill:#a5d1c5; stroke:none;" d="M10.333 15.292c-0.056 0.056 0.076 0.049 0.083 0.042 0.056 -0.056 -0.076 -0.049 -0.083 -0.042"/><path style="fill:#9ecec1; stroke:none;" d="M21.25 15.25c0.156 0.086 0.194 0.094 0.375 0.125 -0.156 -0.086 -0.194 -0.094 -0.375 -0.125"/><path style="fill:#96ccbc; stroke:none;" d="m24.375 15.25 0.125 0.125z"/><path style="fill:#c1e0d7; stroke:none;" d="m31.25 15.25 0.125 0.125z"/><path style="fill:#aad5c7; stroke:none;" d="m7.875 15.375 0.125 0.125z"/><path style="fill:#e0f0eb; stroke:none;" d="M10.375 15.375c0.221 0.097 0.38 0.114 0.625 0.125 -0.221 -0.097 -0.38 -0.114 -0.625 -0.125"/><path style="fill:#97ccbd; stroke:none;" d="M11 15.375c0.221 0.097 0.38 0.114 0.625 0.125 -0.221 -0.097 -0.38 -0.114 -0.625 -0.125"/><path style="fill:#8cc7b6; stroke:none;" d="M20.333 15.417c-0.056 0.056 0.076 0.049 0.083 0.042 0.056 -0.056 -0.076 -0.049 -0.083 -0.042"/><path style="fill:#afd7cc; stroke:none;" d="M20.583 15.417c-0.056 0.056 0.076 0.049 0.083 0.042 0.056 -0.056 -0.076 -0.049 -0.083 -0.042"/><path style="fill:#e3f1ed; stroke:none;" d="M20.75 15.375c0.188 0.085 0.289 0.103 0.5 0.125 -0.188 -0.085 -0.289 -0.103 -0.5 -0.125"/><path style="fill:#abd5c8; stroke:none;" d="m24 15.375 0.125 0.125z"/><path style="fill:#c5e3db; stroke:none;" d="m31.125 15.375 0.125 0.125z"/><path style="fill:#83c6b4; stroke:none;" d="M8 15.5c0.156 0.086 0.194 0.094 0.375 0.125 -0.156 -0.086 -0.194 -0.094 -0.375 -0.125"/><path style="fill:#b1dacf; stroke:none;" d="M11.625 15.5c0.257 0.109 0.468 0.119 0.75 0.125 -0.257 -0.109 -0.468 -0.119 -0.75 -0.125"/><path style="fill:#89c6b6; stroke:none;" d="M12.375 15.5c0.188 0.085 0.289 0.103 0.5 0.125 -0.188 -0.085 -0.289 -0.103 -0.5 -0.125"/><path style="fill:#35a385; stroke:none;" d="M13.75 15.5c0.462 0.194 1.002 0.125 1.5 0.125h2.75c-0.462 -0.194 -1.002 -0.125 -1.5 -0.125z"/><path style="fill:#89c6b5; stroke:none;" d="M18.875 15.5c0.221 0.097 0.38 0.114 0.625 0.125 -0.221 -0.097 -0.38 -0.114 -0.625 -0.125"/><path style="fill:#c5e3db; stroke:none;" d="M19.5 15.5c0.257 0.109 0.468 0.119 0.75 0.125 -0.257 -0.109 -0.468 -0.119 -0.75 -0.125"/><path style="fill:#a5d3c6; stroke:none;" d="M23.583 15.542c-0.056 0.056 0.076 0.049 0.083 0.042 0.056 -0.056 -0.076 -0.049 -0.083 -0.042"/><path style="fill:#6ebca6; stroke:none;" d="M23.833 15.542c-0.056 0.056 0.076 0.049 0.083 0.042 0.056 -0.056 -0.076 -0.049 -0.083 -0.042"/><path style="fill:#bddfd6; stroke:none;" d="m31 15.5 0.125 0.125z"/><path style="fill:#b2dacf; stroke:none;" d="m1 15.625 0.125 0.125z"/><path style="fill:#90cbbb; stroke:none;" d="M8.458 15.667c-0.056 0.056 0.076 0.049 0.083 0.042 0.056 -0.056 -0.076 -0.049 -0.083 -0.042"/><path style="fill:#b8ddd2; stroke:none;" d="M8.708 15.667c-0.056 0.056 0.076 0.049 0.083 0.042 0.056 -0.056 -0.076 -0.049 -0.083 -0.042"/><path style="fill:#bdddd4; stroke:none;" d="M12.875 15.625c0.221 0.097 0.38 0.114 0.625 0.125 -0.221 -0.097 -0.38 -0.114 -0.625 -0.125"/><path style="fill:#79c2ae; stroke:none;" d="M13.5 15.625c0.495 0.208 1.093 0.125 1.625 0.125h2.875c-0.495 -0.208 -1.093 -0.125 -1.625 -0.125z"/><path style="fill:#b2d9ce; stroke:none;" d="M18 15.625c0.327 0.137 0.645 0.124 1 0.125 -0.327 -0.137 -0.645 -0.124 -1 -0.125"/><path style="fill:#d4e8e1; stroke:none;" d="M22.958 15.667c-0.056 0.056 0.076 0.049 0.083 0.042 0.056 -0.056 -0.076 -0.049 -0.083 -0.042"/><path style="fill:#a4d5c8; stroke:none;" d="M23.125 15.625c0.156 0.086 0.194 0.094 0.375 0.125 -0.156 -0.086 -0.194 -0.094 -0.375 -0.125"/><path style="fill:#b6ddd2; stroke:none;" d="m30.875 15.625 0.125 0.125z"/><path style="fill:#b4dcd1; stroke:none;" d="m1.125 15.75 0.125 0.125z"/><path style="fill:#aed8cd; stroke:none;" d="M9.083 15.792c-0.056 0.056 0.076 0.049 0.083 0.042 0.056 -0.056 -0.076 -0.049 -0.083 -0.042"/><path style="fill:#dbeee8; stroke:none;" d="M9.25 15.75c0.156 0.086 0.194 0.094 0.375 0.125 -0.156 -0.086 -0.194 -0.094 -0.375 -0.125"/><path style="fill:#e9f2ef; stroke:none;" d="M22.25 15.75c0.188 0.085 0.289 0.103 0.5 0.125 -0.188 -0.085 -0.289 -0.103 -0.5 -0.125"/><path style="fill:#90c9b8; stroke:none;" d="M22.75 15.75c0.156 0.086 0.194 0.094 0.375 0.125 -0.156 -0.086 -0.194 -0.094 -0.375 -0.125"/><path style="fill:#cfe7e1; stroke:none;" d="M30.75 15.75c-0.169 0.221 -0.265 0.373 -0.375 0.625 0.252 -0.205 0.387 -0.302 0.375 -0.625"/><path style="fill:#bbdfd5; stroke:none;" d="m1.25 15.875 0.125 0.125z"/><path style="fill:#a3d0c3; stroke:none;" d="M9.583 15.917c-0.056 0.056 0.076 0.049 0.083 0.042 0.056 -0.056 -0.076 -0.049 -0.083 -0.042"/><path style="fill:#bfdfd6; stroke:none;" d="M22 15.875c0.156 0.086 0.194 0.094 0.375 0.125 -0.156 -0.086 -0.194 -0.094 -0.375 -0.125"/><path style="fill:#9cd0c3; stroke:none;" d="M1.25 16c0.23 0.306 0.405 0.463 0.75 0.625 -0.23 -0.306 -0.405 -0.463 -0.75 -0.625"/><path style="fill:#97cbbc; stroke:none;" d="M10.208 16.042c-0.056 0.056 0.076 0.049 0.083 0.042 0.056 -0.056 -0.076 -0.049 -0.083 -0.042"/><path style="fill:#d4e9e3; stroke:none;" d="M10.458 16.042c-0.056 0.056 0.076 0.049 0.083 0.042 0.056 -0.056 -0.076 -0.049 -0.083 -0.042"/><path style="fill:#ffffff; stroke:none;" d="M13.375 16.25c0.998 0.535 0.75 1.479 0.75 2.5v6.625h3.875v-9h0.625c-1.689 -0.765 -3.506 -0.197 -5.25 -0.125"/><path style="fill:#c5e1d9; stroke:none;" d="M21.25 16c0.156 0.086 0.194 0.094 0.375 0.125 -0.156 -0.086 -0.194 -0.094 -0.375 -0.125"/><path style="fill:#6cb9a3; stroke:none;" d="M21.708 16.042c-0.056 0.056 0.076 0.049 0.083 0.042 0.056 -0.056 -0.076 -0.049 -0.083 -0.042"/><path style="fill:#73beaa; stroke:none;" d="M10.75 16.125c0.156 0.086 0.194 0.094 0.375 0.125 -0.156 -0.086 -0.194 -0.094 -0.375 -0.125"/><path style="fill:#b9dbd2; stroke:none;" d="M11.125 16.125c0.156 0.086 0.194 0.094 0.375 0.125 -0.156 -0.086 -0.194 -0.094 -0.375 -0.125"/><path style="fill:#d2e7e1; stroke:none;" d="M20.25 16.125c0.156 0.086 0.194 0.094 0.375 0.125 -0.156 -0.086 -0.194 -0.094 -0.375 -0.125"/><path style="fill:#93cbbb; stroke:none;" d="M20.708 16.167c-0.056 0.056 0.076 0.049 0.083 0.042 0.056 -0.056 -0.076 -0.049 -0.083 -0.042"/><path style="fill:#7ec4b1; stroke:none;" d="M11.25 16.25c0.327 0.137 0.646 0.124 1 0.125 -0.327 -0.137 -0.646 -0.124 -1 -0.125"/><path style="fill:#b8dcd1; stroke:none;" d="M12.25 16.25c0.156 0.086 0.194 0.094 0.375 0.125 -0.156 -0.086 -0.194 -0.094 -0.375 -0.125"/><path style="fill:#cae4dd; stroke:none;" d="M19.125 16.25c0.156 0.086 0.194 0.094 0.375 0.125 -0.156 -0.086 -0.194 -0.094 -0.375 -0.125"/><path style="fill:#8cccba; stroke:none;" d="M19.5 16.25c0.327 0.137 0.646 0.124 1 0.125 -0.327 -0.137 -0.645 -0.124 -1 -0.125"/><path style="fill:#91ccbc; stroke:none;" d="m30.25 16.25 0.125 0.125z"/><path style="fill:#8fcaba; stroke:none;" d="M12.625 16.375c0.257 0.109 0.468 0.119 0.75 0.125 -0.257 -0.109 -0.468 -0.119 -0.75 -0.125"/><path style="fill:#acd9cd; stroke:none;" d="M13.375 16.375c0.221 0.097 0.38 0.114 0.625 0.125 -0.221 -0.097 -0.38 -0.114 -0.625 -0.125"/><path style="fill:#a8d6ca; stroke:none;" d="M18 16.375c0.327 0.137 0.646 0.124 1 0.125 -0.327 -0.137 -0.645 -0.124 -1 -0.125"/><path style="fill:#74bda8; stroke:none;" d="M19 16.375c0.156 0.086 0.194 0.094 0.375 0.125 -0.156 -0.086 -0.194 -0.094 -0.375 -0.125"/><path style="fill:#2ea081; stroke:none;" d="M19.75 16.375c0.188 0.085 0.289 0.103 0.5 0.125 -0.188 -0.085 -0.289 -0.103 -0.5 -0.125"/><path style="fill:#daece8; stroke:none;" d="m30.25 16.375 0.125 0.125z"/><path style="fill:#39a588; stroke:none;" d="M12.75 16.5c0.327 0.137 0.646 0.124 1 0.125v8.875c0.338 -0.804 0.125 -2.006 0.125 -2.875v-6.125z"/><path style="fill:#79c1ae; stroke:none;" d="M13.875 16.5v9c0.261 -0.621 0.125 -1.456 0.125 -2.125v-4.5c0 -0.736 0.162 -1.692 -0.125 -2.375"/><path style="fill:#eff6f3; stroke:none;" d="M14 16.5v8.875c0.261 -0.621 0.125 -1.456 0.125 -2.125v-4.375c0 -0.736 0.162 -1.692 -0.125 -2.375"/><path style="fill:#85c7b5; stroke:none;" d="M18 16.5v9c0.286 -0.683 0.125 -1.639 0.125 -2.375v-4.5c0 -0.669 0.136 -1.504 -0.125 -2.125"/><path style="fill:#36a486; stroke:none;" d="M18.125 16.5v9c0.325 -0.774 0.125 -1.914 0.125 -2.75v-6.125h0.875c-0.327 -0.137 -0.646 -0.124 -1 -0.125"/><path style="fill:#d7ece6; stroke:none;" d="m30.125 16.5 0.125 0.125z"/><path style="fill:#68b8a2; stroke:none;" d="M2 16.625c0.163 0.345 0.319 0.52 0.625 0.75 -0.163 -0.345 -0.319 -0.52 -0.625 -0.75"/><path style="fill:#c9e5de; stroke:none;" d="m29.875 16.75 0.125 0.125z"/><path style="fill:#7ec2ac; stroke:none;" d="M29.792 16.958c-0.007 0.007 -0.014 0.139 0.042 0.083 0.007 -0.007 0.014 -0.139 -0.042 -0.083"/><path style="fill:#d2e9e1; stroke:none;" d="m29.625 17 0.125 0.125z"/><path style="fill:#7ec1ad; stroke:none;" d="M29.583 17.167c-0.056 0.056 0.076 0.049 0.083 0.042 0.056 -0.056 -0.076 -0.049 -0.083 -0.042"/><path style="fill:#4fae94; stroke:none;" d="M12 17.25c0.429 0.18 0.912 0.125 1.375 0.125v6.25c0 0.58 -0.323 1.848 0.005 2.337 0.236 0.352 0.753 0.287 1.12 0.288h3c0.408 -0.001 0.979 0.066 1.171 -0.392 0.246 -0.586 -0.046 -1.716 -0.046 -2.358v-6.125h1.375c-0.495 -0.208 -1.092 -0.125 -1.625 -0.125v5.75c0 0.593 0.232 1.727 -0.122 2.233 -0.234 0.334 -0.627 0.379 -1.003 0.391 -0.892 0.028 -1.863 0.088 -2.75 -0.012 -0.342 -0.038 -0.659 -0.161 -0.8 -0.5C13.434 24.469 13.625 23.438 13.625 22.75v-5.5z"/><path style="fill:#88c6b6; stroke:none;" d="m29.375 17.25 -0.375 0.5c0.268 -0.141 0.387 -0.196 0.375 -0.5"/><path style="fill:#69b7a3; stroke:none;" d="M2.75 17.5c0.086 0.198 0.101 0.222 0.25 0.375 -0.086 -0.198 -0.101 -0.222 -0.25 -0.375"/><path style="fill:#84c4b3; stroke:none;" d="M3 17.75c0.224 0.528 0.539 0.91 1 1.25 -0.224 -0.528 -0.539 -0.91 -1 -1.25"/><path style="fill:#a2d0c5; stroke:none;" d="M28.75 18.125c0.182 -0.138 0.237 -0.193 0.375 -0.375 -0.266 0.112 -0.263 0.11 -0.375 0.375"/><path style="fill:#afd8cb; stroke:none;" d="m28.625 18.125 0.125 0.125z"/><path style="fill:#cbe5de; stroke:none;" d="M28.5 18.25c-0.266 0.285 -0.463 0.523 -0.625 0.875 0.33 -0.24 0.634 -0.451 0.625 -0.875"/><path style="fill:#9fd2c5; stroke:none;" d="M4 18.875c0.086 0.198 0.101 0.222 0.25 0.375 -0.086 -0.198 -0.101 -0.222 -0.25 -0.375"/><path style="fill:#8bcab8; stroke:none;" d="m27.75 19 0.125 0.125z"/><path style="fill:#dfeeea; stroke:none;" d="m27.75 19.125 0.125 0.125z"/><path style="fill:#dbede7; stroke:none;" d="m27.625 19.25 0.125 0.125z"/><path style="fill:#d3e9e3; stroke:none;" d="M27.542 19.458c-0.007 0.007 -0.014 0.139 0.042 0.083 0.007 -0.007 0.014 -0.139 -0.042 -0.083"/><path style="fill:#abd8cc; stroke:none;" d="M4.5 19.5v0.25h0.25c-0.068 -0.204 -0.046 -0.182 -0.25 -0.25"/><path style="fill:#9ed1c1; stroke:none;" d="m27.375 19.5 -0.125 0.25h0.25c0 -0.232 0.037 -0.169 -0.125 -0.25"/><path style="fill:#bfe0d8; stroke:none;" d="m27.125 19.75 0.125 0.125z"/><path style="fill:#8ac8b9; stroke:none;" d="m27 19.875 0.125 0.125z"/><path style="fill:#88c6b6; stroke:none;" d="m5.25 20.25 0.125 0.125z"/><path style="fill:#94ccbc; stroke:none;" d="M26.625 20.25c-0.169 0.221 -0.265 0.373 -0.375 0.625 0.252 -0.205 0.387 -0.302 0.375 -0.625"/><path style="fill:#79bfac; stroke:none;" d="M5.375 20.375c0.185 0.396 0.396 0.619 0.75 0.875 -0.185 -0.396 -0.396 -0.619 -0.75 -0.875"/><path style="fill:#a4d1c4; stroke:none;" d="m26.125 20.875 0.125 0.125z"/><path style="fill:#acd5ca; stroke:none;" d="m26 21 0.125 0.125z"/><path style="fill:#b0d8cb; stroke:none;" d="m25.875 21.125 0.125 0.125z"/><path style="fill:#a9d4c8; stroke:none;" d="m6.125 21.25 0.125 0.125z"/><path style="fill:#afd7cb; stroke:none;" d="m25.75 21.25 0.125 0.125z"/><path style="fill:#abd4c8; stroke:none;" d="m6.25 21.375 0.125 0.125z"/><path style="fill:#c0ded5; stroke:none;" d="M25.625 21.375c-0.169 0.221 -0.265 0.373 -0.375 0.625 0.252 -0.205 0.387 -0.302 0.375 -0.625"/><path style="fill:#a4d2c4; stroke:none;" d="M6.375 21.5c0.163 0.345 0.319 0.52 0.625 0.75 -0.163 -0.345 -0.319 -0.52 -0.625 -0.75"/><path style="fill:#89c8b6; stroke:none;" d="m25.125 21.875 0.125 0.125z"/><path style="fill:#d6e9e2; stroke:none;" d="m25.125 22 0.125 0.125z"/><path style="fill:#d4e8e0; stroke:none;" d="m25 22.125 -0.125 0.25h0.25c0 -0.232 0.037 -0.169 -0.125 -0.25"/><path style="fill:#6abba6; stroke:none;" d="M24.625 22.375c-0.123 0.185 -0.125 0.15 -0.125 0.375 0.161 -0.18 0.175 -0.154 0.125 -0.375"/><path style="fill:#d8eae5; stroke:none;" d="m24.75 22.375 0.125 0.125z"/><path style="fill:#78c1ae; stroke:none;" d="M24.25 22.875c-0.22 0.252 -0.364 0.448 -0.5 0.75 0.293 -0.222 0.51 -0.375 0.5 -0.75"/><path style="fill:#75bdab; stroke:none;" d="M8 23.25c0.254 0.553 0.642 1.006 1.125 1.375 -0.245 -0.58 -0.616 -1.008 -1.125 -1.375"/><path style="fill:#a0d2c5; stroke:none;" d="m23.625 23.625 0.125 0.125z"/><path style="fill:#9ed0c3; stroke:none;" d="m23.5 23.75 0.125 0.125z"/><path style="fill:#bcddd5; stroke:none;" d="M23.375 23.875c-0.266 0.285 -0.463 0.523 -0.625 0.875 0.33 -0.24 0.634 -0.451 0.625 -0.875"/><path style="fill:#98ccbf; stroke:none;" d="M9.125 24.5c0.138 0.295 0.244 0.422 0.5 0.625 -0.138 -0.295 -0.244 -0.422 -0.5 -0.625"/><path style="fill:#85c5b2; stroke:none;" d="m22.625 24.625 0.125 0.125z"/><path style="fill:#cae3db; stroke:none;" d="m22.625 24.75 0.125 0.125z"/><path style="fill:#e2edea; stroke:none;" d="m22.5 24.875 -0.5 0.625c0.315 -0.156 0.51 -0.263 0.5 -0.625"/><path style="fill:#5ab29a; stroke:none;" d="m9.5 25.125 0.125 0.125z"/><path style="fill:#c6e1d9; stroke:none;" d="m9.625 25.125 0.125 0.125z"/><path style="fill:#89c6b4; stroke:none;" d="M9.625 25.25c0.153 0.149 0.177 0.165 0.375 0.25 -0.153 -0.149 -0.177 -0.165 -0.375 -0.25"/><path style="fill:#b0dbcf; stroke:none;" d="M14 25.375c0.462 0.194 1.002 0.125 1.5 0.125h2.5c-0.462 -0.194 -1.002 -0.125 -1.5 -0.125z"/><path style="fill:#33a385; stroke:none;" d="M14 25.5c0.462 0.194 1.002 0.125 1.5 0.125h2.5c-0.462 -0.194 -1.002 -0.125 -1.5 -0.125z"/><path style="fill:#afd8cd; stroke:none;" d="m21.875 25.5 0.125 0.125z"/><path style="fill:#95cdbe; stroke:none;" d="m21.75 25.625 0.125 0.125z"/><path style="fill:#86c7b5; stroke:none;" d="m10.25 25.75 0.125 0.125z"/><path style="fill:#8ac9b8; stroke:none;" d="M21.5 25.875c-0.12 0.19 -0.173 0.292 -0.25 0.5 0.204 -0.189 0.27 -0.232 0.25 -0.5"/><path style="fill:#72bda9; stroke:none;" d="M10.5 26c0.163 0.345 0.319 0.52 0.625 0.75 -0.163 -0.345 -0.319 -0.52 -0.625 -0.75"/><path style="fill:#9cd0c2; stroke:none;" d="m21.125 26.375 0.125 0.125z"/><path style="fill:#a4d4c7; stroke:none;" d="m21 26.5 0.125 0.125z"/><path style="fill:#aed9cd; stroke:none;" d="m20.875 26.625 0.125 0.125z"/><path style="fill:#96cebf; stroke:none;" d="m11.125 26.75 0.125 0.125z"/><path style="fill:#a3d3c6; stroke:none;" d="m20.75 26.75 0.125 0.125z"/><path style="fill:#99cebf; stroke:none;" d="m11.25 26.875 0.125 0.125z"/><path style="fill:#9ed0c2; stroke:none;" d="m20.625 26.875 0.125 0.125z"/><path style="fill:#a0d1c3; stroke:none;" d="m11.375 27 0.125 0.125z"/><path style="fill:#b8dcd2; stroke:none;" d="M20.5 27c-0.12 0.19 -0.173 0.292 -0.25 0.5 0.204 -0.189 0.27 -0.232 0.25 -0.5"/><path style="fill:#99cdbe; stroke:none;" d="M11.5 27.125c0.163 0.345 0.319 0.52 0.625 0.75 -0.163 -0.345 -0.319 -0.52 -0.625 -0.75"/><path style="fill:#8bc7b5; stroke:none;" d="m20.125 27.375 0.125 0.125z"/><path style="fill:#c8e2da; stroke:none;" d="m20.125 27.5 0.125 0.125z"/><path style="fill:#c2e0d9; stroke:none;" d="m20 27.625 -0.375 0.5c0.268 -0.141 0.387 -0.196 0.375 -0.5"/><path style="fill:#52b097; stroke:none;" d="m12 27.875 0.125 0.125z"/><path style="fill:#c2e1d8; stroke:none;" d="m12.125 27.875 0.125 0.125z"/><path style="fill:#65b8a2; stroke:none;" d="m12.125 28 0.125 0.125z"/><path style="fill:#cae4dc; stroke:none;" d="m12.25 28 0.125 0.125z"/><path style="fill:#75bfac; stroke:none;" d="m12.25 28.125 0.125 0.125z"/><path style="fill:#bcdcd3; stroke:none;" d="M12.375 28.125c0.113 0.266 0.11 0.263 0.375 0.375 -0.138 -0.182 -0.193 -0.237 -0.375 -0.375"/><path style="fill:#e0eeeb; stroke:none;" d="M19.25 28.625c0.219 -0.166 0.334 -0.281 0.5 -0.5 -0.281 0.144 -0.356 0.219 -0.5 0.5"/><path style="fill:#75bdab; stroke:none;" d="M12.625 28.5c0.286 0.406 0.594 0.714 1 1 -0.227 -0.485 -0.515 -0.773 -1 -1"/><path style="fill:#97cebe; stroke:none;" d="m19.125 28.5 0.125 0.125z"/><path style="fill:#95cabe; stroke:none;" d="M19 28.625c-0.12 0.19 -0.173 0.292 -0.25 0.5 0.204 -0.189 0.27 -0.232 0.25 -0.5"/><path style="fill:#ebf1f1; stroke:none;" d="m19.125 28.625 0.125 0.125z"/><path style="fill:#a1d2c6; stroke:none;" d="m18.625 29.125 0.125 0.125z"/><path style="fill:#9bd1c2; stroke:none;" d="m18.5 29.25 0.125 0.125z"/><path style="fill:#9ad0c1; stroke:none;" d="m18.375 29.375 0.125 0.125z"/><path style="fill:#b9ded5; stroke:none;" d="M18.25 29.5c-0.22 0.252 -0.364 0.448 -0.5 0.75 0.293 -0.222 0.51 -0.375 0.5 -0.75"/><path style="fill:#71bca9; stroke:none;" d="M13.75 29.625c0.117 0.244 0.174 0.319 0.375 0.5 -0.117 -0.244 -0.174 -0.319 -0.375 -0.5"/><path style="fill:#8ac9b9; stroke:none;" d="M14.125 30c0.138 0.295 0.244 0.422 0.5 0.625 -0.138 -0.295 -0.244 -0.422 -0.5 -0.625"/><path style="fill:#c4e3db; stroke:none;" d="m17.625 30.25 0.125 0.125z"/><path style="fill:#cfe7e2; stroke:none;" d="m17.5 30.375 0.125 0.125z"/><path style="fill:#cde7df; stroke:none;" d="M17.375 30.5c-0.22 0.252 -0.364 0.448 -0.5 0.75 0.293 -0.222 0.51 -0.375 0.5 -0.75"/><path style="fill:#bcded4; stroke:none;" d="m14.625 30.625 0.125 0.125z"/><path style="fill:#5cb49b; stroke:none;" d="m14.625 30.75 0.125 0.125z"/><path style="fill:#a2d3c5; stroke:none;" d="M14.75 30.75c0.144 0.281 0.219 0.356 0.5 0.5 -0.166 -0.219 -0.281 -0.334 -0.5 -0.5"/><path style="fill:#a1d1c3; stroke:none;" d="m16.75 31.125 0.125 0.125z"/><path style="fill:#97cbbd; stroke:none;" d="m16.625 31.25 0.125 0.125z"/><path style="fill:#90c8b9; stroke:none;" d="M15.25 31.375c0.153 0.149 0.177 0.165 0.375 0.25 -0.153 -0.149 -0.177 -0.165 -0.375 -0.25"/><path style="fill:#85c4b3; stroke:none;" d="m16.5 31.375 0.125 0.125z"/><path style="fill:#dfede8; stroke:none;" d="m16.625 31.375 0.125 0.125z"/><path style="fill:#cde5df; stroke:none;" d="m16.5 31.5 0.125 0.125z"/><path style="fill:#6fbca7; stroke:none;" d="M15.625 31.625c0.181 0.285 0.289 0.323 0.625 0.375z"/><path style="fill:#ddede7; stroke:none;" d="m16.375 31.625 0.125 0.125z"/><path style="fill:#cce5de; stroke:none;" d="m16.25 31.75 0.125 0.125z"/></svg>